<svg width="4400" height="2475" xmlns="http://www.w3.org/2000/svg" xmlns:xlink="http://www.w3.org/1999/xlink" overflow="hidden"><defs><clipPath id="clip0"><rect x="0" y="0" width="4400" height="2475"/></clipPath><clipPath id="clip1"><path d="M2555 1399 2200 1576.5 2200 2050.5 2555 2228 2910 2050.5 2910 1576.5ZM6.55651e-05 3.68804e-05 4400 3.68804e-05 4400 2475 6.55651e-05 2475Z" fill-rule="evenodd" clip-rule="evenodd"/></clipPath><clipPath id="clip2"><rect x="2273" y="1606" width="564" height="414"/></clipPath><clipPath id="clip3"><rect x="2273" y="1606" width="564" height="414"/></clipPath><clipPath id="clip4"><rect x="2273" y="1606" width="564" height="414"/></clipPath></defs><g clip-path="url(#clip0)"><rect x="0" y="0" width="4400" height="2475" fill="#FFFFFF"/><path d="M2227.76 277.077 2951.96 639.176 2951.96 1605.12 2227.76 1967.22 1503.56 1605.12 1503.56 639.176Z" fill="#191A8E" fill-rule="evenodd"/><path d="M2200 248 2910 602.999 2910 1550 2200 1905 1490 1550 1490 602.999Z" fill="#73CDF4" fill-rule="evenodd"/><text fill="#191A8E" font-family="Cascadia Code,Cascadia Code_MSFontService,sans-serif" font-weight="400" font-size="183" transform="matrix(1 0 0 1 1607.6 1032)">Application<tspan font-size="183" x="376.979" y="220">Code</tspan></text><g clip-path="url(#clip1)"><path d="M2554.66 1413.51 2902.56 1587.46 2902.56 2051.98 2554.66 2225.93 2206.76 2051.98 2206.76 1587.46Z" fill="#191A8E" fill-rule="evenodd"/><path d="M2901.43 1588.16 2554.66 1414.77 2207.88 1588.16 2207.88 2051.29 2554.66 2224.68 2901.43 2051.29ZM2903.68 1586.77 2903.68 2052.68 2554.66 2227.19 2205.63 2052.68 2205.63 1586.77 2554.66 1412.26Z" fill="#191A8E" fill-rule="evenodd"/></g><path d="M2555 1399 2910 1576.5 2910 2050.5 2555 2228 2200 2050.5 2200 1576.5Z" stroke="#AFABAB" stroke-width="2.29167" stroke-miterlimit="8" fill="#FFFFFF" fill-rule="evenodd"/><g clip-path="url(#clip2)"><g clip-path="url(#clip3)"><g clip-path="url(#clip4)"><path d="M137.681 296.714 96.4466 296.714 96.4466 283.765C92.5077 288.71 88.5268 292.313 84.504 294.576 77.464 298.515 69.4603 300.484 60.4927 300.484 45.9939 300.484 33.0873 295.498 21.7732 285.525 8.27986 273.623 1.53333 257.868 1.53333 238.257 1.53333 218.31 8.44748 202.386 22.276 190.486 33.2549 181.016 45.8681 176.28 60.1157 176.28 68.4127 176.28 76.2068 178.04 83.4983 181.56 87.6887 183.572 92.0049 186.883 96.4466 191.492L96.4466 107.892 137.681 107.892 137.681 296.714ZM97.7038 238.383C97.7038 231.007 95.1057 224.742 89.9096 219.589 84.7134 214.434 78.4278 211.858 71.0527 211.858 62.8394 211.858 56.0928 214.958 50.8128 221.16 46.5386 226.188 44.4015 231.929 44.4015 238.383 44.4015 244.836 46.5386 250.577 50.8128 255.605 56.009 261.807 62.7555 264.908 71.0527 264.908 78.5117 264.908 84.8181 262.352 89.9724 257.24 95.1267 252.127 97.7038 245.841 97.7038 238.383ZM292.33 296.714 251.096 296.714 251.096 283.765C247.156 288.71 243.176 292.313 239.154 294.576 232.113 298.515 224.11 300.484 215.142 300.484 200.643 300.484 187.737 295.498 176.422 285.525 162.929 273.623 156.182 257.868 156.182 238.257 156.182 218.31 163.098 202.386 176.925 190.486 187.904 181.016 200.517 176.28 214.765 176.28 223.062 176.28 230.856 178.04 238.148 181.56 242.339 183.572 246.655 186.883 251.096 191.492L251.096 180.052 292.33 180.052 292.33 296.714ZM252.353 238.383C252.353 231.007 249.755 224.742 244.559 219.589 239.362 214.434 233.077 211.858 225.702 211.858 217.489 211.858 210.743 214.958 205.462 221.16 201.189 226.188 199.051 231.929 199.051 238.383 199.051 244.836 201.189 250.577 205.462 255.605 210.658 261.807 217.405 264.908 225.702 264.908 233.162 264.908 239.468 262.352 244.622 257.24 249.777 252.127 252.353 245.841 252.353 238.383ZM451.631 238.508C451.631 258.456 444.717 274.378 430.888 286.279 419.909 295.749 407.296 300.484 393.048 300.484 384.752 300.484 376.958 298.725 369.667 295.205 365.476 293.193 361.16 289.883 356.718 285.273L356.718 355.045 315.483 355.045 315.483 180.052 356.718 180.052 356.718 193.001C360.405 188.138 364.386 184.535 368.661 182.189 375.7 178.25 383.704 176.28 392.671 176.28 407.17 176.28 420.076 181.268 431.391 191.24 444.884 203.141 451.631 218.897 451.631 238.508ZM408.762 238.383C408.762 231.762 406.667 226.021 402.477 221.16 397.198 214.958 390.408 211.858 382.111 211.858 374.653 211.858 368.346 214.414 363.191 219.526 358.038 224.638 355.46 230.923 355.46 238.383 355.46 245.758 358.058 252.022 363.254 257.177 368.451 262.33 374.736 264.908 382.111 264.908 390.408 264.908 397.155 261.807 402.351 255.605 406.626 250.577 408.762 244.836 408.762 238.383ZM557.629 218.143C551.846 215.377 545.98 213.993 540.029 213.993 526.453 213.993 517.653 219.526 513.63 230.589 512.121 234.611 511.366 240.017 511.366 246.805L511.366 296.714 470.134 296.714 470.134 180.052 511.366 180.052 511.366 199.16C515.724 192.372 520.418 187.468 525.447 184.452 532.235 180.429 540.281 178.417 549.583 178.417 551.762 178.417 554.444 178.543 557.629 178.794L557.629 218.143Z" fill="#0D2192" fill-rule="evenodd" transform="matrix(1.00047 0 0 1 2274 1606)"/><path d="M315.158 297.562 356.676 297.562 360.252 395.039 335.916 412.089 311.582 395.039Z" fill="#0D2192" transform="matrix(1.00047 0 0 1 2274 1606)"/><path d="M376.513 3.4946C378.207 3.4946 379.58 4.8676 379.58 6.56127L379.58 111.279C379.58 112.973 378.207 114.346 376.513 114.346L225.138 114.346C223.444 114.346 222.071 112.973 222.071 111.279L222.071 6.56127C222.071 4.8676 223.444 3.4946 225.138 3.4946Z" fill="#0D2192" transform="matrix(1.00047 0 0 1 2274 1606)"/><path d="M222.071 3.4946 280.334 3.4946 280.334 114.346 222.071 114.346Z" fill="#FFFFFF" fill-opacity="0.08" transform="matrix(1.00047 0 0 1 2274 1606)"/><path d="M421.542 107.194C424.692 107.194 427.246 109.748 427.246 112.898L427.246 128.095C427.246 131.245 424.692 133.799 421.542 133.799L178.037 133.799C174.887 133.799 172.333 131.245 172.333 128.095L172.333 112.898C172.333 109.748 174.887 107.194 178.037 107.194Z" fill="#0D2192" transform="matrix(1.00047 0 0 1 2274 1606)"/><path d="M172.333 107.194 251.204 107.194 251.204 139.939 172.333 139.939Z" fill="#FFFFFF" fill-opacity="0.08" transform="matrix(1.00047 0 0 1 2274 1606)"/></g></g></g></g></svg>