<svg width="4400" height="2475" xmlns="http://www.w3.org/2000/svg" xmlns:xlink="http://www.w3.org/1999/xlink" overflow="hidden"><defs><clipPath id="clip0"><rect x="0" y="0" width="4400" height="2475"/></clipPath><clipPath id="clip1"><path d="M763 789 639 851 639 1016 763 1078 887 1016 887 851ZM6.55651e-05 3.68804e-05 4400 3.68804e-05 4400 2475 6.55651e-05 2475Z" fill-rule="evenodd" clip-rule="evenodd"/></clipPath><clipPath id="clip2"><rect x="665" y="861" width="197" height="145"/></clipPath><clipPath id="clip3"><rect x="665" y="861" width="197" height="145"/></clipPath><clipPath id="clip4"><rect x="665" y="861" width="197" height="145"/></clipPath><clipPath id="clip5"><rect x="3049" y="227" width="248" height="249"/></clipPath><clipPath id="clip6"><rect x="3049" y="227" width="248" height="249"/></clipPath><clipPath id="clip7"><rect x="3049" y="227" width="248" height="249"/></clipPath><linearGradient x1="135.96" y1="218.774" x2="103.136" y2="32.7001" gradientUnits="userSpaceOnUse" spreadMethod="pad" id="fill8"><stop offset="0" stop-color="#0078D4"/><stop offset="0.15" stop-color="#0078D4"/><stop offset="0.8" stop-color="#5EA0EF"/><stop offset="1" stop-color="#83B9F9"/></linearGradient><clipPath id="clip9"><rect x="3765" y="227" width="248" height="249"/></clipPath><clipPath id="clip10"><rect x="3765" y="227" width="248" height="249"/></clipPath><clipPath id="clip11"><rect x="3765" y="227" width="248" height="249"/></clipPath><radialGradient cx="-105.006" cy="-10.409" r="5.954" gradientUnits="userSpaceOnUse" spreadMethod="pad" id="fill12" gradientTransform="matrix(14.2162 0 0 14.0927 1615.64 269.559)"><stop offset="0" stop-color="#5EA0EF"/><stop offset="0.183" stop-color="#5EA0EF"/><stop offset="1" stop-color="#0078D4"/></radialGradient><clipPath id="clip13"><path d="M3971.24 331.328C3982.09 376.565 3954.07 421.998 3908.65 432.806 3863.23 443.612 3817.61 415.702 3806.76 370.465 3795.91 325.228 3823.93 279.796 3869.35 268.988 3914.77 258.182 3960.39 286.092 3971.24 331.328Z"/></clipPath><clipPath id="clip14"><rect x="3234" y="596" width="248" height="247"/></clipPath><clipPath id="clip15"><rect x="3234" y="596" width="248" height="247"/></clipPath><clipPath id="clip16"><rect x="3234" y="596" width="248" height="247"/></clipPath><linearGradient x1="123.5" y1="217.277" x2="123.5" y2="79.4242" gradientUnits="userSpaceOnUse" spreadMethod="pad" id="fill17"><stop offset="0" stop-color="#32BEDD"/><stop offset="0.775" stop-color="#32D4F5"/><stop offset="1" stop-color="#32D4F5"/></linearGradient><clipPath id="clip18"><rect x="3921" y="531" width="248" height="248"/></clipPath><clipPath id="clip19"><rect x="3921" y="531" width="248" height="248"/></clipPath><clipPath id="clip20"><rect x="3921" y="531" width="248" height="248"/></clipPath><linearGradient x1="4045" y1="749.157" x2="4045" y2="610.746" gradientUnits="userSpaceOnUse" spreadMethod="pad" id="fill21"><stop offset="0" stop-color="#0078D4"/><stop offset="0.502" stop-color="#4093E6"/><stop offset="0.775" stop-color="#5EA0EF"/><stop offset="1" stop-color="#5EA0EF"/></linearGradient><clipPath id="clip22"><rect x="3778" y="1229" width="247" height="250"/></clipPath><clipPath id="clip23"><rect x="3778" y="1229" width="247" height="250"/></clipPath><clipPath id="clip24"><rect x="3778" y="1229" width="247" height="250"/></clipPath><clipPath id="clip25"><rect x="3174" y="1027" width="250" height="248"/></clipPath><clipPath id="clip26"><rect x="3174" y="1027" width="250" height="248"/></clipPath><clipPath id="clip27"><rect x="3174" y="1027" width="250" height="248"/></clipPath><linearGradient x1="124" y1="193.867" x2="124" y2="18.0902" gradientUnits="userSpaceOnUse" spreadMethod="pad" id="fill28"><stop offset="0" stop-color="#0078D4"/><stop offset="0.156" stop-color="#1380DA"/><stop offset="0.528" stop-color="#3C91E5"/><stop offset="0.822" stop-color="#559CEC"/><stop offset="1" stop-color="#5EA0EF"/></linearGradient><clipPath id="clip29"><rect x="3219" y="1842" width="250" height="250"/></clipPath><clipPath id="clip30"><rect x="3219" y="1842" width="250" height="250"/></clipPath><clipPath id="clip31"><rect x="3219" y="1842" width="250" height="250"/></clipPath><radialGradient cx="9" cy="9" r="8.5" gradientUnits="userSpaceOnUse" spreadMethod="pad" id="fill32" gradientTransform="matrix(13.7778 0 0 13.7778 3220 1843)"><stop offset="0" stop-color="#5EA0EF"/><stop offset="0.18" stop-color="#5EA0EF"/><stop offset="0.56" stop-color="#5C9FEE"/><stop offset="0.69" stop-color="#559CED"/><stop offset="0.78" stop-color="#4A97E9"/><stop offset="0.86" stop-color="#3990E4"/><stop offset="0.93" stop-color="#2387DE"/><stop offset="0.99" stop-color="#087BD6"/><stop offset="1" stop-color="#0078D4"/></radialGradient><radialGradient cx="38.95" cy="182.07" r="9.88" gradientUnits="userSpaceOnUse" spreadMethod="pad" id="fill33" gradientTransform="matrix(12.9511 0 0 12.9511 2824.44 -406.087)"><stop offset="0" stop-color="#FFD70F"/><stop offset="0.27" stop-color="#FFD70F"/><stop offset="0.49" stop-color="#FFCB12"/><stop offset="0.88" stop-color="#FEAC19"/><stop offset="1" stop-color="#FEA11B"/></radialGradient></defs><g clip-path="url(#clip0)"><rect x="0" y="0" width="4400" height="2475" fill="#FFFFFF"/><rect x="1894.5" y="1677.5" width="978" height="600" stroke="#000000" stroke-width="4.58333" stroke-miterlimit="8" fill="#FFFFFF"/><text fill="#191A8E" font-family="Cascadia Code,Cascadia Code_MSFontService,sans-serif" font-weight="400" font-size="83" transform="matrix(1 0 0 1 2549.83 1957)">Secret<tspan font-size="83" x="48.125" y="99">Store</tspan></text><rect x="1894.5" y="938.5" width="978" height="599" stroke="#000000" stroke-width="4.58333" stroke-miterlimit="8" fill="#FFFFFF"/><text fill="#191A8E" font-family="Cascadia Code,Cascadia Code_MSFontService,sans-serif" font-weight="400" font-size="83" transform="matrix(1 0 0 1 2549.83 1217)">PubSub<tspan font-size="83" x="0" y="99">Broker</tspan></text><rect x="1894.5" y="239.5" width="978" height="600" stroke="#000000" stroke-width="4.58333" stroke-miterlimit="8" fill="#FFFFFF"/><text fill="#191A8E" font-family="Cascadia Code,Cascadia Code_MSFontService,sans-serif" font-weight="400" font-size="83" transform="matrix(1 0 0 1 2597.95 519)">State<tspan font-size="83" x="0" y="99">Store</tspan></text><path d="M497.009 179.077 749.459 305.302 749.459 641.393 497.009 767.617 244.559 641.393 244.559 305.302Z" fill="#191A8E" fill-rule="evenodd"/><path d="M478.5 150 726 273.75 726 603.25 478.5 727 231 603.25 231 273.75Z" fill="#73CDF4" fill-rule="evenodd"/><text fill="#191A8E" font-family="Cascadia Code,Cascadia Code_MSFontService,sans-serif" font-weight="400" font-size="64" transform="matrix(1 0 0 1 270.586 422)">Application<tspan font-size="64" x="132.344" y="77">Code</tspan></text><g clip-path="url(#clip1)"><path d="M767.277 803.513 888.796 864.273 888.796 1025.97 767.277 1086.73 645.757 1025.97 645.757 864.273Z" fill="#191A8E" fill-rule="evenodd"/><path d="M887.674 864.967 767.277 804.768 646.88 864.967 646.88 1025.28 767.277 1085.48 887.674 1025.28ZM889.919 863.579 889.919 1026.67 767.277 1087.99 644.634 1026.67 644.634 863.579 767.277 802.258Z" fill="#191A8E" fill-rule="evenodd"/></g><path d="M763 789 887 851 887 1016 763 1078 639 1016 639 851Z" stroke="#AFABAB" stroke-width="2.29167" stroke-miterlimit="8" fill="#FFFFFF" fill-rule="evenodd"/><g clip-path="url(#clip2)"><g clip-path="url(#clip3)"><g clip-path="url(#clip4)"><path d="M47.8889 103.205 33.5467 103.205 33.5467 98.7008C32.1766 100.421 30.792 101.674 29.3927 102.461 26.944 103.831 24.1601 104.516 21.041 104.516 15.9979 104.516 11.5086 102.782 7.57328 99.3131 2.87995 95.1734 0.533333 89.6934 0.533333 82.872 0.533333 75.9339 2.93826 70.3952 7.74816 66.256 11.5669 62.9622 15.9541 61.3147 20.9098 61.3147 23.7957 61.3147 26.5067 61.9269 29.0429 63.1515 30.5004 63.8512 32.0017 65.0027 33.5467 66.6059L33.5467 37.5278 47.8889 37.5278 47.8889 103.205ZM33.984 82.9158C33.984 80.3504 33.0803 78.1712 31.2729 76.3787 29.4656 74.5856 27.2793 73.6896 24.714 73.6896 21.8572 73.6896 19.5106 74.768 17.674 76.9254 16.1874 78.6742 15.444 80.671 15.444 82.9158 15.444 85.1606 16.1874 87.1574 17.674 88.9062 19.4814 91.0635 21.828 92.1419 24.714 92.1419 27.3084 92.1419 29.502 91.2528 31.2948 89.4747 33.0876 87.6966 33.984 85.5099 33.984 82.9158ZM101.68 103.205 87.3376 103.205 87.3376 98.7008C85.9675 100.421 84.583 101.674 83.184 102.461 80.735 103.831 77.9515 104.516 74.832 104.516 69.7888 104.516 65.2998 102.782 61.3643 99.3131 56.671 95.1734 54.3243 89.6934 54.3243 82.872 54.3243 75.9339 56.7296 70.3952 61.5392 66.256 65.3579 62.9622 69.7451 61.3147 74.7008 61.3147 77.5867 61.3147 80.2976 61.9269 82.8342 63.1515 84.2918 63.8512 85.7931 65.0027 87.3376 66.6059L87.3376 62.6267 101.68 62.6267 101.68 103.205ZM87.775 82.9158C87.775 80.3504 86.8715 78.1712 85.064 76.3787 83.2566 74.5856 81.0704 73.6896 78.5051 73.6896 75.6486 73.6896 73.3019 74.768 71.4651 76.9254 69.9787 78.6742 69.2352 80.671 69.2352 82.9158 69.2352 85.1606 69.9787 87.1574 71.4651 88.9062 73.2726 91.0635 75.6192 92.1419 78.5051 92.1419 81.0998 92.1419 83.2934 91.2528 85.0859 89.4747 86.879 87.6966 87.775 85.5099 87.775 82.9158ZM157.089 82.9595C157.089 89.8976 154.684 95.4358 149.874 99.5755 146.056 102.869 141.668 104.516 136.713 104.516 133.827 104.516 131.116 103.905 128.58 102.68 127.122 101.98 125.621 100.829 124.076 99.2256L124.076 123.494 109.733 123.494 109.733 62.6267 124.076 62.6267 124.076 67.1307C125.358 65.4395 126.743 64.1861 128.23 63.3702 130.678 62 133.462 61.3147 136.581 61.3147 141.625 61.3147 146.114 63.0496 150.049 66.5184 154.742 70.6576 157.089 76.1382 157.089 82.9595ZM142.178 82.9158C142.178 80.6128 141.45 78.616 139.992 76.9254 138.156 74.768 135.794 73.6896 132.908 73.6896 130.314 73.6896 128.121 74.5787 126.327 76.3568 124.535 78.135 123.638 80.3211 123.638 82.9158 123.638 85.4811 124.542 87.6598 126.349 89.4528 128.157 91.2454 130.343 92.1419 132.908 92.1419 135.794 92.1419 138.141 91.0635 139.948 88.9062 141.435 87.1574 142.178 85.1606 142.178 82.9158ZM193.958 75.8758C191.947 74.9136 189.906 74.4326 187.836 74.4326 183.114 74.4326 180.053 76.3568 178.654 80.2048 178.129 81.6038 177.867 83.4843 177.867 85.8454L177.867 103.205 163.525 103.205 163.525 62.6267 177.867 62.6267 177.867 69.2731C179.382 66.912 181.015 65.2064 182.764 64.1573 185.125 62.7579 187.924 62.0582 191.16 62.0582 191.917 62.0582 192.85 62.1019 193.958 62.1894L193.958 75.8758Z" fill="#0D2192" fill-rule="evenodd" transform="matrix(1.00136 0 0 1 665 861)"/><path d="M109.62 103.5 124.061 103.5 125.305 137.405 116.841 143.336 108.377 137.405Z" fill="#0D2192" transform="matrix(1.00136 0 0 1 665 861)"/><path d="M130.961 1.21552C131.55 1.21552 132.028 1.69308 132.028 2.28218L132.028 38.7057C132.028 39.2948 131.55 39.7724 130.961 39.7724L78.3088 39.7724C77.7197 39.7724 77.2421 39.2948 77.2421 38.7057L77.2421 2.28218C77.2421 1.69308 77.7197 1.21551 78.3088 1.21551Z" fill="#0D2192" transform="matrix(1.00136 0 0 1 665 861)"/><path d="M77.2421 1.21552 97.5075 1.21552 97.5075 39.7724 77.2421 39.7724Z" fill="#FFFFFF" fill-opacity="0.08" transform="matrix(1.00136 0 0 1 665 861)"/><path d="M146.623 37.2849C147.719 37.2849 148.608 38.1732 148.608 39.269L148.608 44.5548C148.608 45.6506 147.719 46.5389 146.623 46.5389L61.926 46.5389C60.8302 46.5389 59.9419 45.6506 59.9419 44.5548L59.9419 39.269C59.9419 38.1732 60.8302 37.2849 61.926 37.2849Z" fill="#0D2192" transform="matrix(1.00136 0 0 1 665 861)"/><path d="M59.9419 37.2849 87.3752 37.2849 87.3752 48.6745 59.9419 48.6745Z" fill="#FFFFFF" fill-opacity="0.08" transform="matrix(1.00136 0 0 1 665 861)"/></g></g></g><path d="M1968 398 2197 398 2197 633.678 2197 633.68C2197 659.814 2145.74 681 2082.5 681 2019.26 681 1968 659.814 1968 633.68L1968 633.68Z" fill="#191A8E" fill-rule="evenodd"/><path d="M1968 398.5C1968 372.266 2019.26 351 2082.5 351 2145.74 351 2197 372.266 2197 398.5 2197 424.733 2145.74 446 2082.5 446 2019.26 446 1968 424.733 1968 398.5Z" fill="#73CDF4" fill-rule="evenodd"/><rect x="1968" y="1151" width="109" height="96.0002" fill="#191A8E"/><rect x="2119" y="1151" width="108" height="96.0002" fill="#191A8E"/><rect x="2270" y="1151" width="108" height="96.0002" fill="#191A8E"/><path d="M1968 1274.5 2417 1274.5 2417 1246 2474 1303 2417 1360 2417 1331.5 1968 1331.5Z" fill="#73CDF4" fill-rule="evenodd"/><path d="M2101.28 1835.7C2127.26 1864.13 2163.07 1881.64 2201.48 1884.7 2208.61 1885.37 2214.05 1891.38 2214 1898.54L2214 1933.46C2214 2009.37 2165.67 2078.81 2098.57 2121.78 2093.96 2124.74 2088.04 2124.74 2083.43 2121.78 2016.33 2078.81 1968 2009.37 1968 1933.46L1968 1898.54C1967.95 1891.38 1973.39 1885.37 1980.52 1884.7 2018.93 1881.64 2054.74 1864.13 2080.72 1835.7 2085.62 1830.03 2094.19 1829.4 2099.87 1834.29 2100.37 1834.73 2100.84 1835.2 2101.28 1835.7Z" fill="#191A8E" fill-rule="evenodd"/><path d="M2085.5 2001.75 2075.29 2011.5 2085.5 2021.25 2075.29 2031 2091 2043 2106.71 2031 2106.71 1970.25C2117.09 1964.85 2124 1954.5 2124 1942.5 2124 1925.1 2109.23 1911 2091 1911 2072.77 1911 2058 1925.1 2058 1942.5 2058 1954.5 2064.91 1964.85 2075.29 1970.25L2075.29 1980 2081.57 1986 2075.29 1992 2085.5 2001.75ZM2081.57 1929C2081.57 1924.05 2085.81 1920 2091 1920 2096.19 1920 2100.43 1924.05 2100.43 1929 2100.43 1933.95 2096.19 1938 2091 1938 2085.81 1938 2081.57 1933.95 2081.57 1929Z" fill="#73CDF4" fill-rule="evenodd"/><path d="M22.9167-3.4375 126.911-3.4375 126.911 137.74 120.036 137.74 120.036 0 123.474 3.4375 22.9167 3.4375ZM27.5 13.75 0 0 27.5-13.75ZM137.224 133.156 123.474 160.656 109.724 133.156Z" transform="matrix(1.83697e-16 1 1 -1.83697e-16 479.5 727.5)"/><text font-family="Cascadia Code,Cascadia Code_MSFontService,sans-serif" font-weight="400" font-size="55" transform="matrix(1 0 0 1 288.317 953)">HTTP/<tspan font-size="55" x="160.417" y="0">gRPC</tspan></text><path d="M766.937 1100.71 766.937 1160.3 763.5 1156.86 1401.24 1156.86 1397.8 1160.3 1397.8 536.063 1871.69 536.063 1871.69 542.938 1401.24 542.938 1404.68 539.5 1404.68 1163.74 760.062 1163.74 760.062 1100.71ZM749.75 1105.3 763.5 1077.8 777.25 1105.3ZM1867.1 525.75 1894.6 539.5 1867.1 553.25Z"/><path d="M22.9167-3.4375 163.393-3.4375 163.393 1108.19 156.518 1108.19 156.518 0 159.956 3.4375 22.9167 3.4375ZM27.5 13.75 0 0 27.5-13.75ZM173.706 1103.6 159.956 1131.1 146.206 1103.6Z" transform="matrix(1.83697e-16 1 1 -1.83697e-16 763.5 1078.5)"/><path d="M22.9167-3.4375 902.966-3.4375 902.966 1108.19 896.091 1108.19 896.091 0 899.528 3.4375 22.9167 3.4375ZM27.5 13.75 0 0 27.5-13.75ZM913.278 1103.6 899.528 1131.1 885.778 1103.6Z" transform="matrix(1.83697e-16 1 1 -1.83697e-16 763.5 1078.5)"/><g clip-path="url(#clip5)"><g clip-path="url(#clip6)"><g clip-path="url(#clip7)"><path d="M198.835 98.114C197.632 59.4171 165.501 28.9015 126.793 29.6949 95.9578 29.3292 68.2802 48.5504 57.8529 77.5718 25.1173 81.9977 0.529846 109.682-5.44401e-06 142.711 0.987686 180.145 32.1084 209.707 69.5443 208.77L189.641 208.77C220.505 207.999 245.535 183.525 247 152.687 246.432 125.173 226.066 102.097 198.835 98.114Z" fill="url(#fill8)" transform="matrix(1.00405 0 0 1 3049 228)"/><path d="M177.017 156.433 177.017 109.778 164.667 109.778 164.667 166.451 198.423 166.451 198.423 156.433ZM79.0401 133.517C76.4896 132.493 74.1253 131.056 72.0417 129.263 70.9249 128.081 70.3314 126.498 70.395 124.872 70.3149 123.235 71.0953 121.674 72.4534 120.756 74.1424 119.591 76.1672 119.012 78.2167 119.109 83.104 118.889 87.9274 120.288 91.9389 123.088L91.9389 111.287C87.5548 109.656 82.8909 108.91 78.2167 109.092 72.8332 108.806 67.526 110.462 63.2595 113.757 59.4875 116.666 57.3431 121.21 57.4961 125.97 57.4961 132.968 61.8873 138.457 71.2184 142.574 74.2473 143.864 77.1049 145.523 79.7262 147.514 81.0262 148.602 81.7794 150.209 81.7845 151.905 81.783 153.594 80.9651 155.179 79.5889 156.159 77.7227 157.255 75.5756 157.781 73.4139 157.668 67.8946 157.623 62.5795 155.574 58.4567 151.905L58.4567 164.667C62.9889 167.002 68.0442 168.136 73.1395 167.96 78.8914 168.305 84.5928 166.71 89.3317 163.432 92.7265 160.217 94.405 155.588 93.8601 150.945 93.9285 147.432 92.7082 144.015 90.4295 141.339 87.2221 137.963 83.342 135.299 79.0401 133.517ZM150.945 155.336C157.023 145.594 157.023 133.241 150.945 123.5 148.804 119.214 145.468 115.64 141.339 113.208 137.156 110.838 132.424 109.607 127.617 109.641 122.434 109.528 117.317 110.807 112.797 113.346 108.559 115.707 105.083 119.23 102.78 123.5 100.353 128.353 99.1291 133.718 99.2117 139.143 99.2385 143.911 100.366 148.606 102.505 152.866 104.603 157.102 107.894 160.631 111.973 163.02 116.117 165.55 120.844 166.968 125.696 167.137L137.497 180.859 154.101 180.859 137.222 165.765C142.906 164.06 147.78 160.355 150.945 155.336ZM137.222 151.905C134.688 155.049 130.829 156.826 126.793 156.708 122.722 156.849 118.835 155.008 116.365 151.768 113.467 147.804 112.058 142.946 112.385 138.046 112.065 133.147 113.474 128.291 116.365 124.323 118.98 121.099 122.916 119.232 127.068 119.246 131.141 119.068 135.022 120.983 137.36 124.323 140.064 128.368 141.365 133.189 141.065 138.046 141.545 142.982 140.175 147.92 137.222 151.905Z" fill="#F2F2F2" transform="matrix(1.00405 0 0 1 3049 228)"/></g></g></g><g clip-path="url(#clip9)"><g clip-path="url(#clip10)"><g clip-path="url(#clip11)"><path d="M40.5355 72.2613C39.2092 72.2688 38.1279 71.1999 38.1204 69.8737 38.1204 69.8645 38.1204 69.8554 38.1204 69.8462L38.1204 69.8462C38.0977 54.6303 25.7684 42.3008 10.5524 42.2782 9.2239 42.2782 8.14483 41.2053 8.13728 39.8768L8.13728 39.8768C8.13728 38.543 9.21857 37.4617 10.5524 37.4617 25.7736 37.439 38.1053 25.1014 38.1204 9.88001 38.1128 8.55378 39.1818 7.4725 40.5079 7.46489 40.5171 7.46484 40.5263 7.46484 40.5355 7.46489L40.5355 7.46489C41.8617 7.45729 42.943 8.52625 42.9506 9.85248 42.9506 9.86166 42.9506 9.87083 42.9506 9.88001L42.9506 9.88001C42.9732 25.096 55.3026 37.4253 70.5185 37.448 71.8448 37.4404 72.9261 38.5094 72.9337 39.8355 72.9337 39.8447 72.9337 39.8539 72.9337 39.8631L72.9337 39.8631C72.9412 41.1893 71.8722 42.2706 70.5461 42.2782 70.5369 42.2782 70.5277 42.2782 70.5185 42.2782L70.5185 42.2782C55.2995 42.2933 42.9657 54.6271 42.9506 69.8462 42.943 71.1769 41.8661 72.2537 40.5355 72.2613Z" fill="#50E6FF" transform="matrix(1.00405 0 0 1 3765 228)"/><path d="M214.218 239.535C213.149 239.535 212.283 238.669 212.283 237.6L212.283 237.6C212.268 225.427 202.404 215.564 190.231 215.549 189.168 215.549 188.303 214.691 188.296 213.628L188.296 213.628C188.296 212.559 189.162 211.693 190.231 211.693L190.231 211.693C202.407 211.685 212.275 201.817 212.283 189.641 212.283 188.572 213.149 187.706 214.218 187.706L214.218 187.706C215.287 187.706 216.153 188.572 216.153 189.641L216.153 189.641C216.161 201.817 226.028 211.685 238.204 211.693 239.273 211.693 240.139 212.559 240.139 213.628 240.139 214.697 239.273 215.563 238.204 215.563L238.204 215.563C226.031 215.578 216.168 225.441 216.153 237.614 216.144 238.678 215.281 239.535 214.218 239.535Z" fill="#50E6FF" transform="matrix(1.00405 0 0 1 3765 228)"/><path d="M205.408 103.328C216.216 148.565 188.305 193.998 143.068 204.806 97.8314 215.612 52.3989 187.702 41.5915 142.466 30.7842 97.2285 58.6948 51.7958 103.931 40.9884 149.168 30.1816 194.6 58.0921 205.407 103.329Z" fill="url(#fill12)" transform="matrix(1.00405 0 0 1 3765 228)"/><g clip-path="url(#clip13)"><path d="M78.3402 179.967C90.7496 180.292 101.073 170.496 101.398 158.087 101.723 145.677 91.9269 135.353 79.5173 135.028 79.1479 135.019 78.7784 135.018 78.4088 135.027 78.4752 134.389 78.5072 133.747 78.5049 133.106 78.3917 120.62 68.198 110.58 55.7123 110.656L38.8614 110.656C35.5241 135.862 43.5409 161.249 60.7483 179.967Z" fill="#F2F2F2" transform="matrix(1.00405 0 0 1 3765 228)"/><path d="M206.451 107.239C206.451 107.033 206.451 106.828 206.355 106.635 203.641 91.9516 196.97 78.2872 187.061 67.1154 185.776 66.5947 184.45 66.1816 183.096 65.8804 169.935 62.1252 156.221 69.7506 152.465 82.9123 151.927 84.7982 151.614 86.7411 151.535 88.7005 150.623 88.5952 149.707 88.5357 148.79 88.5221 135.626 88.521 124.954 99.1917 124.953 112.356 124.952 122.448 131.307 131.446 140.818 134.821 143.182 135.748 145.701 136.213 148.241 136.193L176.097 136.193C187.282 127.727 197.466 118.012 206.451 107.239Z" fill="#F2F2F2" transform="matrix(1.00405 0 0 1 3765 228)"/></g><path d="M235.899 52.5836C227.268 38.2164 207.082 32.6177 178.883 36.8167 169.221 38.1859 159.673 40.259 150.313 43.0192 157.738 45.5825 164.789 49.1217 171.281 53.5441 174.588 52.8169 177.909 51.9524 181.092 51.4721 186.101 50.6924 191.159 50.2842 196.228 50.2508 206.295 48.7995 216.413 52.5439 223.11 60.1994L223.11 60.1994C228.365 68.9542 223.933 83.9252 210.952 101.366 192.911 123.821 170.803 142.68 145.785 156.955 121.327 172.219 94.2164 182.75 65.8667 187.995 44.4051 191.206 29.0637 187.995 23.8081 179.267 18.5525 170.54 22.9847 155.528 35.966 138.169 37.5715 136.015 37.9694 134.958 39.7945 132.79 38.9367 125.351 39.0566 117.831 40.1512 110.423 34.3172 116.271 28.9492 122.565 24.0962 129.25 7.09439 151.987 2.48372 172.434 11.1013 186.801 20.3657 199.195 35.5248 205.724 50.8958 203.94 56.644 203.91 62.3821 203.451 68.0623 202.568 98.3236 197.044 127.274 185.872 153.401 169.634 180.084 154.364 203.645 134.197 222.849 110.19 239.906 87.3969 244.516 66.9645 235.899 52.5836Z" fill="#50E6FF" transform="matrix(1.00405 0 0 1 3765 228)"/></g></g></g><g clip-path="url(#clip14)"><g clip-path="url(#clip15)"><g clip-path="url(#clip16)"><path d="M6.86111 79.4242 240.139 79.4242 240.139 79.4242 240.139 209.483C240.139 213.788 236.649 217.277 232.344 217.277L14.6553 217.277C10.3507 217.277 6.86111 213.788 6.86111 209.483L6.86111 79.4242 6.86111 79.4242Z" fill="url(#fill17)" transform="matrix(1.00405 0 0 1 3234 596)"/><path d="M14.6965 29.7223 232.303 29.7223C236.608 29.7223 240.098 33.2119 240.098 37.5165L240.098 79.4242 240.098 79.4242 6.86111 79.4242 6.86111 79.4242 6.86111 37.5165C6.86105 33.2119 10.3506 29.7223 14.6552 29.7222 14.6689 29.7222 14.6828 29.7222 14.6965 29.7223Z" fill="#0078D4" transform="matrix(1.00405 0 0 1 3234 596)"/><path d="M114.251 96.7279C116.396 96.7279 118.135 98.4665 118.135 100.611L118.135 139.61C118.135 141.755 116.396 143.493 114.251 143.493L35.8287 143.493C33.684 143.493 31.9453 141.755 31.9453 139.61L31.9453 100.611C31.9453 98.4665 33.684 96.7279 35.8287 96.7279Z" fill="#0078D4" transform="matrix(1.00405 0 0 1 3234 596)"/><path d="M210.416 96.7279C212.561 96.7279 214.3 98.4665 214.3 100.611L214.3 139.61C214.3 141.755 212.561 143.493 210.416 143.493L131.994 143.493C129.849 143.493 128.111 141.755 128.111 139.61L128.111 100.611C128.111 98.4665 129.849 96.7279 131.994 96.7279Z" fill="#FFFFFF" transform="matrix(1.00405 0 0 1 3234 596)"/><path d="M113.812 152.701C115.957 152.701 117.695 154.439 117.695 156.584L117.695 195.583C117.695 197.727 115.957 199.466 113.812 199.466L35.3896 199.466C33.2448 199.466 31.5062 197.727 31.5062 195.583L31.5062 156.584C31.5062 154.439 33.2448 152.701 35.3896 152.701Z" fill="#0078D4" transform="matrix(1.00405 0 0 1 3234 596)"/><path d="M209.977 152.701C212.122 152.701 213.861 154.439 213.861 156.584L213.861 195.583C213.861 197.727 212.122 199.466 209.977 199.466L131.555 199.466C129.41 199.466 127.671 197.727 127.671 195.583L127.671 156.584C127.671 154.439 129.41 152.701 131.555 152.701Z" fill="#0078D4" transform="matrix(1.00405 0 0 1 3234 596)"/></g></g></g><g clip-path="url(#clip18)"><g clip-path="url(#clip19)"><g clip-path="url(#clip20)"><path d="M3927.89 610.746 4162.11 610.746 4162.11 610.746 4162.11 741.332C4162.11 745.654 4158.61 749.157 4154.29 749.157L3935.71 749.157C3931.39 749.157 3927.89 745.654 3927.89 741.332L3927.89 610.746 3927.89 610.746Z" fill="url(#fill21)"/><path d="M3935.76 560.843 4154.24 560.843C4158.57 560.843 4162.07 564.346 4162.07 568.669L4162.07 610.746 4162.07 610.746 3927.89 610.746 3927.89 610.746 3927.89 568.669C3927.89 564.346 3931.39 560.843 3935.71 560.843 3935.73 560.843 3935.74 560.843 3935.76 560.843Z" fill="#0078D4"/><path d="M3999.13 629.112C4001.29 629.112 4003.03 630.857 4003.03 633.011L4003.03 650.701C4003.03 652.855 4001.29 654.6 3999.13 654.6L3956.64 654.6C3954.49 654.6 3952.74 652.855 3952.74 650.701L3952.74 633.011C3952.74 630.857 3954.49 629.112 3956.64 629.112Z" fill="#FFFFFF" fill-opacity="0.9"/><path d="M4066.59 628.753C4068.74 628.753 4070.49 630.499 4070.49 632.652L4070.49 650.343C4070.49 652.497 4068.74 654.242 4066.59 654.242L4024.1 654.242C4021.95 654.242 4020.2 652.497 4020.2 650.343L4020.2 632.652C4020.2 630.499 4021.95 628.753 4024.1 628.753Z" fill="#FFFFFF" fill-opacity="0.9"/><path d="M4134.05 628.753C4136.2 628.753 4137.94 630.499 4137.94 632.652L4137.94 650.343C4137.94 652.497 4136.2 654.242 4134.05 654.242L4091.56 654.242C4089.4 654.242 4087.66 652.497 4087.66 650.343L4087.66 632.652C4087.66 630.499 4089.4 628.753 4091.56 628.753Z" fill="#FFFFFF" fill-opacity="0.9"/><path d="M3999.88 665.568C4002.03 665.568 4003.78 667.313 4003.78 669.467L4003.78 687.157C4003.78 689.311 4002.03 691.056 3999.88 691.056L3957.39 691.056C3955.23 691.056 3953.49 689.311 3953.49 687.157L3953.49 669.467C3953.49 667.313 3955.23 665.568 3957.39 665.568Z" fill="#FFFFFF" fill-opacity="0.9"/><path d="M4067.33 665.209C4069.49 665.209 4071.23 666.955 4071.23 669.108L4071.23 686.799C4071.23 688.953 4069.49 690.698 4067.33 690.698L4024.84 690.698C4022.69 690.698 4020.94 688.953 4020.94 686.799L4020.94 669.108C4020.94 666.955 4022.69 665.209 4024.84 665.209Z" fill="#FFD400"/><path d="M4134.79 665.209C4136.94 665.209 4138.69 666.955 4138.69 669.108L4138.69 686.799C4138.69 688.953 4136.94 690.698 4134.79 690.698L4092.3 690.698C4090.15 690.698 4088.4 688.953 4088.4 686.799L4088.4 669.108C4088.4 666.955 4090.15 665.209 4092.3 665.209Z" fill="#FFD400"/><path d="M3999.88 702.382C4002.03 702.382 4003.78 704.128 4003.78 706.281L4003.78 723.972C4003.78 726.125 4002.03 727.871 3999.88 727.871L3957.39 727.871C3955.23 727.871 3953.49 726.125 3953.49 723.972L3953.49 706.281C3953.49 704.128 3955.23 702.382 3957.39 702.382Z" fill="#FFD400"/><path d="M4067.33 702.024C4069.49 702.024 4071.23 703.769 4071.23 705.923L4071.23 723.613C4071.23 725.767 4069.49 727.512 4067.33 727.512L4024.84 727.512C4022.69 727.512 4020.94 725.767 4020.94 723.613L4020.94 705.923C4020.94 703.769 4022.69 702.024 4024.84 702.024Z" fill="#FFD400"/><path d="M4134.79 702.024C4136.94 702.024 4138.69 703.769 4138.69 705.923L4138.69 723.613C4138.69 725.767 4136.94 727.512 4134.79 727.512L4092.3 727.512C4090.15 727.512 4088.4 725.767 4088.4 723.613L4088.4 705.923C4088.4 703.769 4090.15 702.024 4092.3 702.024Z" fill="#FFD400"/></g></g></g><g clip-path="url(#clip22)"><g clip-path="url(#clip23)"><g clip-path="url(#clip24)"><path d="M148.612 115.541C148.691 117.462 147.235 119.1 145.318 119.246L116.639 119.246C114.718 119.325 113.08 117.869 112.934 115.953L112.934 94.546C112.854 92.6255 114.311 90.9873 116.227 90.841L144.907 90.841C146.828 90.7616 148.465 92.2178 148.612 94.1344L148.612 115.541Z" fill="#76BC2D" transform="matrix(1 0 0 1.00405 3778 1230)"/><path d="M199.521 137.222C199.601 139.143 198.145 140.78 196.228 140.927L167.548 140.927C165.627 141.007 163.99 139.551 163.843 137.634L163.843 116.364C163.764 114.444 165.22 112.805 167.137 112.659L195.816 112.659C197.737 112.58 199.374 114.036 199.521 115.953L199.521 137.222Z" fill="#76BC2D" transform="matrix(1 0 0 1.00405 3778 1230)"/><path d="M148.612 159.178C148.691 161.099 147.235 162.736 145.318 162.883L116.639 162.883C114.718 162.962 113.08 161.506 112.934 159.589L112.934 138.183C112.854 136.262 114.311 134.624 116.227 134.478L144.907 134.478C146.828 134.398 148.465 135.854 148.612 137.771L148.612 159.178Z" fill="#76BC2D" transform="matrix(1 0 0 1.00405 3778 1230)"/><path d="M97.7021 93.8599C97.7817 95.7047 96.3869 97.2817 94.546 97.4277L65.0433 97.4277C63.171 97.5121 61.5526 96.1334 61.3383 94.2716L61.3383 72.0416C61.4028 70.2266 62.8207 68.7496 64.6316 68.6111L93.311 68.6111C96.3299 68.6111 97.7021 70.1205 97.7021 72.316Z" fill="#86D633" transform="matrix(1 0 0 1.00405 3778 1230)"/><path d="M97.7021 137.222C97.8593 139.11 96.456 140.768 94.5679 140.926 94.5606 140.926 94.5533 140.927 94.546 140.927L65.0433 140.927C63.0744 141.004 61.4155 139.471 61.3383 137.502 61.3346 137.409 61.3346 137.315 61.3383 137.222L61.3383 115.541C61.3328 113.673 62.7691 112.117 64.6316 111.973L93.311 111.973C96.3299 111.973 97.7021 113.483 97.7021 115.541Z" fill="#76BC2D" transform="matrix(1 0 0 1.00405 3778 1230)"/><path d="M97.7021 180.996C97.8593 182.884 96.456 184.542 94.5679 184.7 94.5606 184.7 94.5533 184.701 94.546 184.701L65.0433 184.701C63.1227 184.781 61.4846 183.325 61.3383 181.408L61.3383 159.178C61.261 157.284 62.733 155.687 64.6261 155.61 64.6279 155.61 64.6298 155.61 64.6316 155.61L93.311 155.61C96.3299 155.61 97.7021 156.982 97.7021 159.178Z" fill="#76BC2D" transform="matrix(1 0 0 1.00405 3778 1230)"/><path d="M14.6828 20.7205 32.3844 20.7205 32.3844 20.7205 32.3844 70.1205C32.3844 72.3183 30.6027 74.0999 28.405 74.0999L10.8405 74.0999C8.64276 74.0999 6.86111 72.3183 6.86111 70.1205L6.86111 28.9539C6.63374 24.64 9.94645 20.9588 14.2603 20.7314 14.4009 20.724 14.5418 20.7204 14.6828 20.7205Z" fill="#999999" transform="matrix(1 0 0 1.00405 3778 1230)"/><path d="M14.6828 20.7205 32.3844 20.7205 32.3844 20.7205 32.3844 70.1205C32.3844 72.3183 30.6027 74.0999 28.405 74.0999L10.8405 74.0999C8.64276 74.0999 6.86111 72.3183 6.86111 70.1205L6.86111 28.9539C6.63374 24.64 9.94645 20.9588 14.2603 20.7314 14.4009 20.724 14.5418 20.7204 14.6828 20.7205Z" fill="#999999" fill-opacity="0.5" transform="matrix(1 0 0 1.00405 3778 1230)"/><path d="M214.615 20.7205 232.317 20.7205C236.637 20.7205 240.139 24.2224 240.139 28.5422L240.139 69.7088C240.139 71.9066 238.358 73.6883 236.159 73.6883L218.458 73.6883C216.259 73.6883 214.478 71.9066 214.478 69.7088L214.478 20.7205 214.615 20.7205Z" fill="#999999" transform="matrix(1 0 0 1.00405 3778 1230)"/><path d="M214.615 20.7205 232.317 20.7205C236.637 20.7205 240.139 24.2224 240.139 28.5422L240.139 69.7088C240.139 71.9066 238.358 73.6883 236.159 73.6883L218.458 73.6883C216.259 73.6883 214.478 71.9066 214.478 69.7088L214.478 20.7205 214.615 20.7205Z" fill="#999999" fill-opacity="0.5" transform="matrix(1 0 0 1.00405 3778 1230)"/><path d="M118.834-83.431 135.987-83.431 135.987-83.431 135.987 149.847 135.987 149.847 118.834 149.847C114.515 149.847 111.013 146.345 111.013 142.025L111.013-75.7466C111.088-80.0127 114.568-83.4317 118.834-83.431Z" fill="#949494" transform="matrix(6.12323e-17 1.00405 -1 6.14803e-17 3934.71 1139.34)"/><path d="M10.8405 175.095 28.5422 175.095C30.7399 175.095 32.5216 176.877 32.5216 179.075L32.5216 228.475 32.5216 228.475 14.6828 228.475C10.363 228.475 6.86111 224.973 6.86111 220.653L6.86111 178.389C7.19808 176.462 8.88501 175.067 10.8405 175.095Z" fill="#999999" transform="matrix(1 0 0 1.00405 3778 1230)"/><path d="M10.8405 175.095 28.5422 175.095C30.7399 175.095 32.5216 176.877 32.5216 179.075L32.5216 228.475 32.5216 228.475 14.6828 228.475C10.363 228.475 6.86111 224.973 6.86111 220.653L6.86111 178.389C7.19808 176.462 8.88501 175.067 10.8405 175.095Z" fill="#999999" fill-opacity="0.5" transform="matrix(1 0 0 1.00405 3778 1230)"/><path d="M218.458 175.095 236.159 175.095C238.358 175.095 240.139 176.877 240.139 179.075L240.139 220.241C240.139 224.561 236.637 228.063 232.317 228.063L214.615 228.063 214.615 228.063 214.615 178.389C214.943 176.513 216.554 175.132 218.458 175.095Z" fill="#999999" transform="matrix(1 0 0 1.00405 3778 1230)"/><path d="M218.458 175.095 236.159 175.095C238.358 175.095 240.139 176.877 240.139 179.075L240.139 220.241C240.139 224.561 236.637 228.063 232.317 228.063L214.615 228.063 214.615 228.063 214.615 178.389C214.943 176.513 216.554 175.132 218.458 175.095Z" fill="#999999" fill-opacity="0.5" transform="matrix(1 0 0 1.00405 3778 1230)"/><path d="M118.834 99.3488 135.987 99.3488 135.987 99.3488 135.987 332.626 135.987 332.626 118.834 332.626C114.515 332.626 111.013 329.124 111.013 324.805L111.013 107.17C111.013 102.851 114.515 99.3488 118.834 99.3488Z" fill="#949494" transform="matrix(6.12323e-17 -1.00405 1 6.14803e-17 3685.51 1570.86)"/></g></g></g><g clip-path="url(#clip25)"><g clip-path="url(#clip26)"><g clip-path="url(#clip27)"><path d="M248 138.811C247.177 111.523 226.704 88.8494 199.64 85.2568 197.962 46.8508 165.731 16.9228 127.307 18.0902 96.7 17.5165 69.0729 36.3471 58.4177 65.0449 25.8172 69.0115 0.99834 96.1892-3.15348e-06 129.015 1.44187 166.174 32.6617 195.17 69.8257 193.867 71.9062 193.867 73.9591 193.771 75.9844 193.605L189.059 193.605C190.071 193.589 191.077 193.436 192.048 193.151 222.238 192.934 246.902 168.982 248 138.811Z" fill="url(#fill28)" transform="matrix(1 0 0 1 3175 1027)"/><path d="M166.256 162.66 78.6297 162.66C76.5301 162.615 74.7906 164.279 74.7444 166.379 74.7444 166.379 74.7444 166.38 74.7444 166.38L74.7444 190.243C74.7896 192.338 76.5209 194.002 78.616 193.963L166.256 193.963C168.352 194.002 170.082 192.338 170.128 190.243L170.128 166.38C170.076 164.289 168.348 162.63 166.256 162.66Z" fill="#32BEDD" transform="matrix(1 0 0 1 3175 1027)"/><path d="M166.256 198.607 78.6297 198.607C76.5301 198.561 74.7906 200.225 74.7444 202.325 74.7444 202.325 74.7444 202.327 74.7444 202.327L74.7444 226.176C74.7822 228.276 76.5148 229.947 78.6147 229.91 78.6151 229.91 78.6155 229.91 78.616 229.91L166.256 229.91C168.356 229.948 170.089 228.277 170.128 226.177 170.128 226.177 170.128 226.176 170.128 226.176L170.128 202.327C170.076 200.235 168.348 198.576 166.256 198.607Z" fill="#198AB3" transform="matrix(1 0 0 1 3175 1027)"/><path d="M155.275 168.516 160.415 168.516C160.963 168.516 161.407 168.96 161.407 169.508L161.407 174.413C161.407 174.938 160.981 175.363 160.456 175.363L155.234 175.363C154.709 175.363 154.283 174.938 154.283 174.413L154.283 169.467C154.306 168.935 154.744 168.516 155.275 168.516Z" fill="#B4EC36" transform="matrix(1 0 0 1 3175 1027)"/><path d="M155.248 180.31 160.428 180.31C160.977 180.31 161.42 180.753 161.42 181.302L161.42 186.165C161.42 186.714 160.977 187.157 160.428 187.157L155.275 187.157C154.727 187.157 154.283 186.714 154.283 186.165L154.283 181.26C154.283 180.735 154.709 180.31 155.234 180.31 155.238 180.31 155.244 180.31 155.248 180.31Z" fill="#B4EC36" transform="matrix(1 0 0 1 3175 1027)"/><path d="M155.537 204.283 160.718 204.283C161.266 204.283 161.71 204.727 161.71 205.275L161.71 210.18C161.71 210.705 161.284 211.131 160.759 211.131L155.579 211.131C155.03 211.131 154.587 210.687 154.587 210.139L154.587 205.289C154.556 204.765 154.956 204.315 155.481 204.284 155.5 204.283 155.518 204.283 155.537 204.283Z" fill="#B4EC36" transform="matrix(1 0 0 1 3175 1027)"/><path d="M155.537 216.077 160.718 216.077C161.266 216.077 161.71 216.52 161.71 217.069L161.71 221.974C161.71 222.499 161.284 222.924 160.759 222.924L155.537 222.924C155.012 222.924 154.587 222.499 154.587 221.974L154.587 217.027C154.587 216.502 155.012 216.077 155.537 216.077Z" fill="#B4EC36" transform="matrix(1 0 0 1 3175 1027)"/><path d="M165.43 123.903 77.8031 123.903C75.7035 123.857 73.964 125.522 73.918 127.622 73.9179 127.627 73.9179 127.632 73.9177 127.637L73.9177 151.555C73.9629 153.652 75.692 155.32 77.7893 155.289L165.43 155.289C167.527 155.32 169.256 153.652 169.301 151.555L169.301 127.637C169.256 125.54 167.527 123.873 165.43 123.903Z" fill="#50E6FF" transform="matrix(1 0 0 1 3175 1027)"/><path d="M154.421 129.773 159.602 129.773C160.15 129.773 160.594 130.217 160.594 130.765L160.594 135.67C160.594 136.195 160.168 136.62 159.643 136.62L154.449 136.62C153.9 136.62 153.457 136.176 153.457 135.628L153.457 130.723C153.457 130.198 153.883 129.773 154.407 129.773 154.412 129.773 154.417 129.773 154.421 129.773Z" fill="#FFFFFF" transform="matrix(1 0 0 1 3175 1027)"/><path d="M154.421 141.567 159.602 141.567C160.15 141.567 160.594 142.01 160.594 142.559L160.594 147.422C160.594 147.947 160.168 148.373 159.643 148.373L154.421 148.373C153.896 148.373 153.471 147.947 153.471 147.422L153.471 142.476C153.493 141.968 153.911 141.567 154.421 141.567Z" fill="#FFFFFF" transform="matrix(1 0 0 1 3175 1027)"/><path d="M160.304 101.955 126.824 135.435C125.264 136.995 122.736 136.995 121.175 135.435L87.6955 101.955C87.003 101.249 87.0143 100.115 87.7207 99.4226 88.0528 99.0972 88.4982 98.9136 88.9631 98.9106L109.547 98.9106C110.529 98.9106 111.324 98.1148 111.324 97.1333L111.324 55.304C111.324 54.543 111.941 53.9262 112.702 53.9262L135.243 53.9262C136.004 53.9262 136.62 54.543 136.62 55.304L136.62 97.147C136.62 98.1286 137.416 98.9244 138.398 98.9244L158.982 98.9244C159.971 98.9076 160.787 99.6957 160.803 100.685 160.811 101.158 160.632 101.614 160.304 101.955Z" fill="#FFFFFF" transform="matrix(1 0 0 1 3175 1027)"/></g></g></g><g clip-path="url(#clip29)"><g clip-path="url(#clip30)"><g clip-path="url(#clip31)"><path d="M3344 1849.89C3279.32 1849.89 3226.89 1902.32 3226.89 1967 3226.89 2031.68 3279.32 2084.11 3344 2084.11 3408.68 2084.11 3461.11 2031.68 3461.11 1967 3461.04 1902.35 3408.65 1849.96 3344 1849.89ZM3344 2068.13C3288.15 2068.13 3242.87 2022.85 3242.87 1967 3242.87 1911.15 3288.15 1865.87 3344 1865.87 3399.85 1865.87 3445.13 1911.15 3445.13 1967 3445.13 2022.85 3399.85 2068.13 3344 2068.13Z" fill="url(#fill32)"/><path d="M3445.13 1967C3445.13 2022.85 3399.85 2068.13 3344 2068.13 3288.15 2068.13 3242.87 2022.85 3242.87 1967 3242.87 1911.15 3288.15 1865.87 3344 1865.87 3399.85 1865.87 3445.13 1911.15 3445.13 1967Z" fill="#FFFFFF"/><path d="M3405.17 1943.99C3414.96 1934.11 3414.96 1918.19 3405.17 1908.31L3405.17 1908.31 3361.77 1864.77C3351.94 1855 3336.06 1855 3326.23 1864.77L3326.23 1864.77 3282.83 1908.31C3273.04 1918.19 3273.04 1934.11 3282.83 1943.99L3318.92 1980.78C3320.24 1982.09 3320.99 1983.88 3320.99 1985.74L3320.99 2052.97C3320.99 2055.24 3321.88 2057.42 3323.47 2059.04L3340 2075.57C3342.21 2077.78 3345.79 2077.78 3347.99 2075.57 3347.99 2075.57 3347.99 2075.57 3348 2075.57L3363.98 2059.59 3363.98 2059.59 3373.35 2050.22C3374.57 2048.9 3374.57 2046.85 3373.35 2045.53L3366.6 2038.78C3365.25 2037.35 3365.25 2035.12 3366.6 2033.68L3373.35 2026.93C3374.57 2025.61 3374.57 2023.57 3373.35 2022.25L3366.6 2015.5C3365.25 2014.06 3365.25 2011.83 3366.6 2010.4L3373.35 2003.65C3374.57 2002.33 3374.57 2000.29 3373.35 1998.96L3363.98 1989.46 3363.98 1986.01ZM3344 1875.38C3351.88 1875.38 3358.26 1881.76 3358.26 1889.64 3358.26 1897.51 3351.88 1903.9 3344 1903.9 3336.12 1903.9 3329.74 1897.51 3329.74 1889.64 3329.74 1881.76 3336.12 1875.38 3344 1875.38Z" fill="url(#fill33)"/><path d="M3332.7 2053.8 3332.7 2053.8C3334.03 2054.94 3336.03 2054.79 3337.17 2053.47 3337.65 2052.91 3337.92 2052.2 3337.94 2051.46L3337.94 1996.35C3337.93 1995.23 3337.36 1994.19 3336.42 1993.59L3336.42 1993.59C3335.02 1992.67 3333.14 1993.06 3332.23 1994.46 3331.86 1995.02 3331.69 1995.68 3331.74 1996.35L3331.74 2051.46C3331.79 2052.32 3332.13 2053.15 3332.7 2053.8Z" fill="#FF9300" fill-opacity="0.75"/><path d="M3376.65 1922.77C3378.78 1922.77 3380.51 1924.5 3380.51 1926.63L3380.51 1927.32C3380.51 1929.45 3378.78 1931.18 3376.65 1931.18L3313.14 1931.18C3311.01 1931.18 3309.28 1929.45 3309.28 1927.32L3309.28 1926.63C3309.28 1924.5 3311.01 1922.77 3313.14 1922.77Z" fill="#FF9300" fill-opacity="0.75"/><path d="M3376.65 1936.41C3378.78 1936.41 3380.51 1938.14 3380.51 1940.27L3380.51 1940.96C3380.51 1943.09 3378.78 1944.82 3376.65 1944.82L3313.14 1944.82C3311.01 1944.82 3309.28 1943.09 3309.28 1940.96L3309.28 1940.27C3309.28 1938.14 3311.01 1936.41 3313.14 1936.41Z" fill="#FF9300" fill-opacity="0.75"/></g></g></g><path d="M0 0 177.568 187.859" stroke="#000000" stroke-width="3.4375" stroke-linejoin="round" stroke-miterlimit="10" stroke-dasharray="13.75 10.3125" fill="none" fill-rule="evenodd" transform="matrix(1 0 0 -1 2872.5 539.359)"/><path d="M2872.5 539.5 3234.93 719.959" stroke="#000000" stroke-width="3.4375" stroke-linejoin="round" stroke-miterlimit="10" stroke-dasharray="13.75 10.3125" fill="none" fill-rule="evenodd"/><path d="M0 0 893.564 187.859" stroke="#000000" stroke-width="3.4375" stroke-linejoin="round" stroke-miterlimit="10" stroke-dasharray="13.75 10.3125" fill="none" fill-rule="evenodd" transform="matrix(1 0 0 -1 2872.5 539.359)"/><path d="M2872.5 539.5 3922.03 655.183" stroke="#000000" stroke-width="3.4375" stroke-linejoin="round" stroke-miterlimit="10" stroke-dasharray="13.75 10.3125" fill="none" fill-rule="evenodd"/><path d="M0 0 303.099 86.6333" stroke="#000000" stroke-width="3.4375" stroke-linejoin="round" stroke-miterlimit="10" stroke-dasharray="13.75 10.3125" fill="none" fill-rule="evenodd" transform="matrix(1 0 0 -1 2872.5 1238.13)"/><path d="M2872.5 1237.5 3778.23 1353.94" stroke="#000000" stroke-width="3.4375" stroke-linejoin="round" stroke-miterlimit="10" stroke-dasharray="13.75 10.3125" fill="none" fill-rule="evenodd"/><path d="M0 0 348.25 10.3035" stroke="#000000" stroke-width="3.4375" stroke-linejoin="round" stroke-miterlimit="10" stroke-dasharray="13.75 10.3125" fill="none" fill-rule="evenodd" transform="matrix(1 0 0 -1 2872.5 1977.8)"/></g></svg>