<svg width="4418" height="2490" xmlns="http://www.w3.org/2000/svg" xmlns:xlink="http://www.w3.org/1999/xlink" overflow="hidden"><defs><clipPath id="clip0"><rect x="0" y="0" width="4418" height="2490"/></clipPath><clipPath id="clip1"><path d="M763 789 639 851 639 1016 763 1078 887 1016 887 851ZM6.58333e-05 3.71039e-05 4418 3.71039e-05 4418 2490 6.58333e-05 2490Z" fill-rule="evenodd" clip-rule="evenodd"/></clipPath><clipPath id="clip2"><rect x="665" y="861" width="197" height="145"/></clipPath><clipPath id="clip3"><rect x="665" y="861" width="197" height="145"/></clipPath><clipPath id="clip4"><rect x="665" y="861" width="197" height="145"/></clipPath><clipPath id="clip5"><rect x="143" y="2270" width="643" height="113"/></clipPath><clipPath id="clip6"><rect x="143" y="2270" width="643" height="113"/></clipPath><clipPath id="clip7"><rect x="143" y="2270" width="643" height="113"/></clipPath></defs><g clip-path="url(#clip0)"><rect x="0" y="0" width="4400" height="2475" fill="#FFFFFF"/><path d="M497.009 179.077 749.459 305.302 749.459 641.393 497.009 767.617 244.559 641.393 244.559 305.302Z" fill="#191A8E" fill-rule="evenodd"/><path d="M478.5 150 726 273.75 726 603.25 478.5 727 231 603.25 231 273.75Z" fill="#73CDF4" fill-rule="evenodd"/><text fill="#191A8E" font-family="Cascadia Code,Cascadia Code_MSFontService,sans-serif" font-weight="400" font-size="64" transform="matrix(1 0 0 1 270.586 422)">Application<tspan font-size="64" x="132.344" y="77">Code</tspan></text><g clip-path="url(#clip1)"><path d="M767.277 803.513 888.796 864.273 888.796 1025.97 767.277 1086.73 645.757 1025.97 645.757 864.273Z" fill="#191A8E" fill-rule="evenodd"/><path d="M887.674 864.967 767.277 804.768 646.88 864.967 646.88 1025.28 767.277 1085.48 887.674 1025.28ZM889.919 863.579 889.919 1026.67 767.277 1087.99 644.634 1026.67 644.634 863.579 767.277 802.258Z" fill="#191A8E" fill-rule="evenodd"/></g><path d="M763 789 887 851 887 1016 763 1078 639 1016 639 851Z" stroke="#AFABAB" stroke-width="2.29167" stroke-miterlimit="8" fill="#FFFFFF" fill-rule="evenodd"/><g clip-path="url(#clip2)"><g clip-path="url(#clip3)"><g clip-path="url(#clip4)"><path d="M47.8889 103.205 33.5467 103.205 33.5467 98.7008C32.1766 100.421 30.792 101.674 29.3927 102.461 26.944 103.831 24.1601 104.516 21.041 104.516 15.9979 104.516 11.5086 102.782 7.57328 99.3131 2.87995 95.1734 0.533333 89.6934 0.533333 82.872 0.533333 75.9339 2.93826 70.3952 7.74816 66.256 11.5669 62.9622 15.9541 61.3147 20.9098 61.3147 23.7957 61.3147 26.5067 61.9269 29.0429 63.1515 30.5004 63.8512 32.0017 65.0027 33.5467 66.6059L33.5467 37.5278 47.8889 37.5278 47.8889 103.205ZM33.984 82.9158C33.984 80.3504 33.0803 78.1712 31.2729 76.3787 29.4656 74.5856 27.2793 73.6896 24.714 73.6896 21.8572 73.6896 19.5106 74.768 17.674 76.9254 16.1874 78.6742 15.444 80.671 15.444 82.9158 15.444 85.1606 16.1874 87.1574 17.674 88.9062 19.4814 91.0635 21.828 92.1419 24.714 92.1419 27.3084 92.1419 29.502 91.2528 31.2948 89.4747 33.0876 87.6966 33.984 85.5099 33.984 82.9158ZM101.68 103.205 87.3376 103.205 87.3376 98.7008C85.9675 100.421 84.583 101.674 83.184 102.461 80.735 103.831 77.9515 104.516 74.832 104.516 69.7888 104.516 65.2998 102.782 61.3643 99.3131 56.671 95.1734 54.3243 89.6934 54.3243 82.872 54.3243 75.9339 56.7296 70.3952 61.5392 66.256 65.3579 62.9622 69.7451 61.3147 74.7008 61.3147 77.5867 61.3147 80.2976 61.9269 82.8342 63.1515 84.2918 63.8512 85.7931 65.0027 87.3376 66.6059L87.3376 62.6267 101.68 62.6267 101.68 103.205ZM87.775 82.9158C87.775 80.3504 86.8715 78.1712 85.064 76.3787 83.2566 74.5856 81.0704 73.6896 78.5051 73.6896 75.6486 73.6896 73.3019 74.768 71.4651 76.9254 69.9787 78.6742 69.2352 80.671 69.2352 82.9158 69.2352 85.1606 69.9787 87.1574 71.4651 88.9062 73.2726 91.0635 75.6192 92.1419 78.5051 92.1419 81.0998 92.1419 83.2934 91.2528 85.0859 89.4747 86.879 87.6966 87.775 85.5099 87.775 82.9158ZM157.089 82.9595C157.089 89.8976 154.684 95.4358 149.874 99.5755 146.056 102.869 141.668 104.516 136.713 104.516 133.827 104.516 131.116 103.905 128.58 102.68 127.122 101.98 125.621 100.829 124.076 99.2256L124.076 123.494 109.733 123.494 109.733 62.6267 124.076 62.6267 124.076 67.1307C125.358 65.4395 126.743 64.1861 128.23 63.3702 130.678 62 133.462 61.3147 136.581 61.3147 141.625 61.3147 146.114 63.0496 150.049 66.5184 154.742 70.6576 157.089 76.1382 157.089 82.9595ZM142.178 82.9158C142.178 80.6128 141.45 78.616 139.992 76.9254 138.156 74.768 135.794 73.6896 132.908 73.6896 130.314 73.6896 128.121 74.5787 126.327 76.3568 124.535 78.135 123.638 80.3211 123.638 82.9158 123.638 85.4811 124.542 87.6598 126.349 89.4528 128.157 91.2454 130.343 92.1419 132.908 92.1419 135.794 92.1419 138.141 91.0635 139.948 88.9062 141.435 87.1574 142.178 85.1606 142.178 82.9158ZM193.958 75.8758C191.947 74.9136 189.906 74.4326 187.836 74.4326 183.114 74.4326 180.053 76.3568 178.654 80.2048 178.129 81.6038 177.867 83.4843 177.867 85.8454L177.867 103.205 163.525 103.205 163.525 62.6267 177.867 62.6267 177.867 69.2731C179.382 66.912 181.015 65.2064 182.764 64.1573 185.125 62.7579 187.924 62.0582 191.16 62.0582 191.917 62.0582 192.85 62.1019 193.958 62.1894L193.958 75.8758Z" fill="#0D2192" fill-rule="evenodd" transform="matrix(1.00136 0 0 1 665 861)"/><path d="M109.62 103.5 124.061 103.5 125.305 137.405 116.841 143.336 108.377 137.405Z" fill="#0D2192" transform="matrix(1.00136 0 0 1 665 861)"/><path d="M130.961 1.21552C131.55 1.21552 132.028 1.69308 132.028 2.28218L132.028 38.7057C132.028 39.2948 131.55 39.7724 130.961 39.7724L78.3088 39.7724C77.7197 39.7724 77.2421 39.2948 77.2421 38.7057L77.2421 2.28218C77.2421 1.69308 77.7197 1.21551 78.3088 1.21551Z" fill="#0D2192" transform="matrix(1.00136 0 0 1 665 861)"/><path d="M77.2421 1.21552 97.5075 1.21552 97.5075 39.7724 77.2421 39.7724Z" fill="#FFFFFF" fill-opacity="0.08" transform="matrix(1.00136 0 0 1 665 861)"/><path d="M146.623 37.2849C147.719 37.2849 148.608 38.1732 148.608 39.269L148.608 44.5548C148.608 45.6506 147.719 46.5389 146.623 46.5389L61.926 46.5389C60.8302 46.5389 59.9419 45.6506 59.9419 44.5548L59.9419 39.269C59.9419 38.1732 60.8302 37.2849 61.926 37.2849Z" fill="#0D2192" transform="matrix(1.00136 0 0 1 665 861)"/><path d="M59.9419 37.2849 87.3752 37.2849 87.3752 48.6745 59.9419 48.6745Z" fill="#FFFFFF" fill-opacity="0.08" transform="matrix(1.00136 0 0 1 665 861)"/></g></g></g><path d="M22.9167-3.4375 126.911-3.4375 126.911 137.74 120.036 137.74 120.036 0 123.474 3.4375 22.9167 3.4375ZM27.5 13.75 0 0 27.5-13.75ZM137.224 133.156 123.474 160.656 109.724 133.156Z" transform="matrix(1.83697e-16 1 1 -1.83697e-16 479.5 727.5)"/><text font-family="Cascadia Code,Cascadia Code_MSFontService,sans-serif" font-weight="400" font-size="55" transform="matrix(1 0 0 1 288.317 953)">HTTP/<tspan font-size="55" x="160.417" y="0">gRPC</tspan></text><path d="M164.999 2160 4253 2160C4344.13 2160 4418 2233.87 4418 2325L4418 2490 0 2490 0 2325C-3.51544e-14 2233.87 73.8724 2160 164.999 2160Z" fill="#E7E6E6" fill-rule="evenodd"/><text fill="#191A8E" font-family="Calibri,Calibri_MSFontService,sans-serif" font-weight="400" font-size="83" transform="matrix(1 0 0 1 1887.71 2377)">Kubernetes<tspan font-size="83" x="385.573" y="0">-</tspan><tspan font-size="83" x="410.781" y="0">hosted</tspan></text><g clip-path="url(#clip5)"><g clip-path="url(#clip6)"><g clip-path="url(#clip7)"><path d="M100.635 23.7092C100.004 21.6914 98.4908 20.0519 96.5991 19.043L58.1347 0.630564C57.1258 0.126113 55.9908 2.24022e-15 54.9819 2.24022e-15 53.973 2.24022e-15 52.838 2.24022e-15 51.8291 0.252226L13.3647 18.7908C11.473 19.6736 10.0858 21.3131 9.58135 23.457L0.122879 64.9481C-0.255459 67.092 0.248992 69.2359 1.51013 71.0015L28.1199 103.917C29.6332 105.43 31.7772 106.439 33.9211 106.565L76.295 106.565C78.565 106.818 80.7089 105.809 82.0962 103.917L108.706 71.0015C109.967 69.2359 110.472 67.092 110.219 64.9481L100.635 23.7092Z" fill="#326DE6" transform="matrix(1.00424 0 0 1 146.993 2273.2)"/><path d="M94.7074 63.3086 94.7074 63.3086C94.5813 63.3086 94.4552 63.3086 94.4552 63.1825 94.4552 63.0564 94.203 63.0564 93.9508 63.0564 93.4463 62.9303 92.9419 62.9303 92.4374 62.9303 92.1852 62.9303 91.933 62.9303 91.6807 62.8042L91.5546 62.8042C90.1674 62.6781 88.654 62.4258 87.2668 62.0475 86.8885 61.9214 86.5101 61.5431 86.384 61.1647 86.5101 61.1647 86.384 61.1647 86.384 61.1647L86.384 61.1647 85.3751 60.9125C85.8795 57.2552 85.6273 53.4718 84.8707 49.8146 83.9879 46.1573 82.4745 42.6261 80.4567 39.4733L81.2134 38.7166 81.2134 38.7166 81.2134 38.5905C81.2134 38.2122 81.3395 37.7077 81.5917 37.4555 82.7267 36.4466 83.8617 35.6899 85.1229 34.9333L85.1229 34.9333C85.3751 34.8071 85.6273 34.681 85.8795 34.5549 86.384 34.3027 86.7623 34.0505 87.2668 33.7982 87.3929 33.6721 87.519 33.6721 87.6451 33.546 87.7712 33.4199 87.6451 33.4199 87.6451 33.2938L87.6451 33.2938C88.7801 32.411 89.0324 30.8976 88.1496 29.7626 87.7712 29.2582 87.0146 28.8798 86.384 28.8798 85.7534 28.8798 85.1229 29.1321 84.6184 29.5104L84.6184 29.5104 84.4923 29.6365C84.3662 29.7626 84.2401 29.8887 84.114 29.8887 83.7356 30.2671 83.3573 30.6454 83.1051 31.0238 82.979 31.276 82.7267 31.4021 82.6006 31.5282L82.6006 31.5282C81.7178 32.5371 80.5828 33.546 79.4478 34.3027 79.1956 34.4288 78.9433 34.5549 78.6911 34.5549 78.565 34.5549 78.3128 34.5549 78.1867 34.4288L78.0606 34.4288 77.0517 35.0594C76.0428 34.0505 74.9077 33.0416 73.8988 32.0327 69.2327 28.3754 63.4315 26.1054 57.5042 25.4748L57.3781 24.4659 57.3781 24.4659 57.3781 24.592C56.9997 24.3398 56.8736 23.9614 56.7475 23.5831 56.7475 22.1959 56.7475 20.8086 56.9997 19.2953L56.9997 19.1691C56.9997 18.9169 57.1258 18.6647 57.1258 18.4125 57.2519 17.908 57.2519 17.4036 57.3781 16.8991L57.3781 16.1424 57.3781 16.1424C57.5042 14.8813 56.4953 13.6202 55.2341 13.4941 54.4775 13.368 53.7208 13.7463 53.0902 14.3769 52.5858 14.8813 52.3335 15.5119 52.3335 16.1424L52.3335 16.1424 52.3335 16.773C52.3335 17.2775 52.4597 17.7819 52.5858 18.2864 52.7119 18.5386 52.7119 18.7908 52.7119 19.043L52.7119 19.1691C52.9641 20.5564 52.9641 21.9436 52.9641 23.457 52.838 23.8353 52.7119 24.2137 52.3335 24.4659L52.3335 24.7181 52.3335 24.7181 52.2074 25.727C50.8202 25.8531 49.4329 26.1054 47.9196 26.3576 41.9923 27.6187 36.5694 30.7715 32.4077 35.1855L31.651 34.681 31.5249 34.681C31.3988 34.681 31.2727 34.8071 31.0205 34.8071 30.7682 34.8071 30.516 34.681 30.2638 34.5549 29.1288 33.6721 27.9938 32.6632 27.111 31.6543L27.111 31.6543C26.9849 31.4021 26.7326 31.276 26.6065 31.1499 26.2282 30.7715 25.976 30.3932 25.5976 30.0149 25.4715 29.8887 25.3454 29.8887 25.2193 29.7626 25.0932 29.6365 25.0932 29.6365 25.0932 29.6365L25.0932 29.6365C24.5887 29.2582 23.9582 29.0059 23.3276 29.0059 22.5709 29.0059 21.9404 29.2582 21.562 29.8887 20.8053 31.0238 21.0576 32.5371 22.0665 33.4199L22.0665 33.4199C22.1926 33.4199 22.1926 33.546 22.1926 33.546 22.1926 33.546 22.4448 33.7982 22.5709 33.7982 22.9493 34.0505 23.4537 34.3027 23.9582 34.5549 24.2104 34.681 24.4626 34.8071 24.7148 34.9333L24.7148 34.9333C25.976 35.6899 27.2371 36.4466 28.246 37.4555 28.4982 37.7077 28.7504 38.2122 28.6243 38.5905L28.6243 38.4644 28.6243 38.4644 29.381 39.2211C29.2549 39.4733 29.1288 39.5994 29.0027 39.8517 25.0932 46.0312 23.4537 53.3457 24.5887 60.5342L23.5798 60.7864 23.5798 60.7864C23.5798 60.9125 23.4537 60.9125 23.4537 60.9125 23.3276 61.2908 22.9493 61.5431 22.5709 61.7953 21.1837 62.1736 19.7964 62.4258 18.2831 62.552L18.2831 62.552C18.0309 62.552 17.7786 62.552 17.5264 62.6781 17.022 62.6781 16.5175 62.8042 16.0131 62.8042 15.8869 62.8042 15.7608 62.9303 15.5086 62.9303 15.3825 62.9303 15.3825 62.9303 15.2564 63.0564L15.2564 63.0564C13.8691 63.3086 12.9863 64.5698 13.2386 65.957 13.2386 65.957 13.2386 65.957 13.2386 65.957 13.4908 67.092 14.6258 67.8487 15.7608 67.7226 16.0131 67.7226 16.1392 67.7226 16.3914 67.5965L16.3914 67.5965C16.5175 67.5965 16.5175 67.5965 16.5175 67.4704 16.5175 67.3442 16.8958 67.4704 17.022 67.4704 17.5264 67.3442 18.0309 67.092 18.4092 66.9659 18.6614 66.8398 18.9136 66.7137 19.1659 66.7137L19.292 66.7137C20.6792 66.2092 21.9404 65.8309 23.4537 65.5787L23.5798 65.5787C23.9582 65.5787 24.3365 65.7048 24.5887 65.957 24.7148 65.957 24.7148 66.0831 24.7148 66.0831L24.7148 66.0831 25.8498 65.957C27.7415 71.7582 31.2727 76.9288 36.1911 80.7122 37.3261 81.595 38.335 82.3517 39.5961 82.9822L38.9656 83.865 38.9656 83.865C38.9656 83.9911 39.0917 83.9911 39.0917 83.9911 39.3439 84.3695 39.3439 84.8739 39.2178 85.2523 38.7134 86.5134 37.9567 87.7745 37.2 88.9095L37.2 89.0356C37.0739 89.2879 36.9478 89.414 36.6956 89.6662 36.4433 89.9184 36.1911 90.4229 35.8128 90.9273 35.6866 91.0535 35.6866 91.1796 35.5605 91.3057 35.5605 91.3057 35.5605 91.4318 35.4344 91.4318L35.4344 91.4318C34.8039 92.6929 35.3083 94.2063 36.4433 94.8368 36.6956 94.963 37.0739 95.0891 37.3261 95.0891 38.335 95.0891 39.2178 94.4585 39.7223 93.5757L39.7223 93.5757C39.7223 93.5757 39.7223 93.4496 39.8484 93.4496 39.8484 93.3235 39.9745 93.1974 40.1006 93.0713 40.2267 92.5668 40.4789 92.1885 40.605 91.684L40.8573 90.9273 40.8573 90.9273C41.2356 89.5401 41.8662 88.279 42.4967 87.0178 42.749 86.6395 43.1273 86.3873 43.5056 86.2612 43.6318 86.2612 43.6318 86.2612 43.6318 86.1351L43.6318 86.1351 44.1362 85.1262C47.6674 86.5134 51.3246 87.144 55.108 87.144 57.3781 87.144 59.6481 86.8917 61.9181 86.2612 63.3054 86.0089 64.6926 85.5045 65.9537 85.1262L66.4582 86.0089 66.4582 86.0089C66.5843 86.0089 66.5843 86.0089 66.5843 86.1351 66.9626 86.2612 67.341 86.5134 67.5932 86.8917 68.2238 88.1529 68.8543 89.414 69.2327 90.8012L69.2327 90.9273 69.4849 91.684C69.611 92.1885 69.7371 92.6929 69.9893 93.0713 70.1154 93.1974 70.1154 93.3235 70.2416 93.4496 70.2416 93.4496 70.2416 93.5757 70.3677 93.5757L70.3677 93.5757C70.8721 94.4585 71.7549 95.0891 72.7638 95.0891 73.1422 95.0891 73.3944 94.963 73.7727 94.8368 74.2772 94.5846 74.7816 94.0802 74.9077 93.4496 75.0338 92.819 75.0338 92.1885 74.7816 91.5579L74.7816 91.5579C74.7816 91.4318 74.6555 91.4318 74.6555 91.4318 74.6555 91.3057 74.5294 91.1796 74.4033 91.0535 74.1511 90.549 73.8988 90.1707 73.5205 89.7923 73.3944 89.5401 73.2683 89.414 73.016 89.1618L73.016 88.9095C72.1333 87.7745 71.5027 86.5134 70.9982 85.2523 70.8721 84.8739 70.8721 84.3695 71.1244 83.9911 71.1244 83.865 71.2505 83.865 71.2505 83.865L71.2505 83.865 70.8721 82.8561C77.3039 78.9466 82.2223 72.8932 84.4923 65.7048L85.5012 65.8309 85.5012 65.8309C85.6273 65.8309 85.6273 65.7048 85.6273 65.7048 85.8795 65.4526 86.2579 65.3264 86.6362 65.3264L86.7623 65.3264C88.1496 65.5787 89.5368 65.957 90.798 66.4615L90.9241 66.4615C91.1763 66.5876 91.4285 66.7137 91.6807 66.7137 92.1852 66.9659 92.5635 67.2181 93.068 67.3442 93.1941 67.3442 93.3202 67.4704 93.5724 67.4704 93.6985 67.4704 93.6985 67.4704 93.8247 67.5965L93.8247 67.5965C94.0769 67.7226 94.203 67.7226 94.4552 67.7226 95.5902 67.7226 96.5991 66.9659 96.9775 65.957 96.8514 64.5698 95.8425 63.5609 94.7074 63.3086ZM58.2608 59.3991 54.8558 61.0386 51.4508 59.3991 50.568 55.7419 52.9641 52.7152 56.7475 52.7152 59.1436 55.7419 58.2608 59.3991ZM78.8172 51.2018C79.4478 53.8502 79.5739 56.4985 79.3217 59.1469L67.341 55.7419 67.341 55.7419C66.2059 55.4896 65.5754 54.3546 65.8276 53.2196 65.9537 52.8413 66.0798 52.589 66.3321 52.3368L75.7905 43.7612C77.1778 46.0312 78.1867 48.5534 78.8172 51.2018ZM72.0071 39.095 61.6659 46.4095C60.7831 46.914 59.522 46.7879 58.8914 45.9051 58.6392 45.6528 58.5131 45.4006 58.5131 45.0223L57.7564 32.2849C63.3054 32.9154 68.2238 35.3116 72.0071 39.095L72.0071 39.095ZM49.1807 32.6632 51.703 32.1588 51.0724 44.7701 51.0724 44.7701C51.0724 45.9051 50.0635 46.7879 48.9285 46.7879 48.5502 46.7879 48.2979 46.6617 47.9196 46.5356L37.4522 39.095C40.7312 35.9422 44.7668 33.6721 49.1807 32.6632ZM33.795 43.7612 43.1273 52.0846 43.1273 52.0846C44.0101 52.8413 44.1362 54.1024 43.3795 54.9852 43.1273 55.3635 42.8751 55.4896 42.3706 55.6157L30.1377 59.1469C29.7593 53.8502 31.0205 48.4273 33.795 43.7612ZM31.651 65.0742 44.1362 62.9303C45.1451 62.9303 46.154 63.5609 46.2801 64.5698 46.4062 64.9481 46.4062 65.4526 46.154 65.8309L46.154 65.8309 41.3617 77.4333C36.9478 74.5327 33.4166 70.1187 31.651 65.0742ZM60.2786 80.7122C58.5131 81.0905 56.7475 81.3428 54.8558 81.3428 52.2074 81.3428 49.4329 80.8383 46.9107 80.0816L53.0902 68.8576C53.7208 68.1009 54.7297 67.8487 55.6125 68.3531 55.9908 68.6054 56.243 68.8576 56.6214 69.2359L56.6214 69.2359 62.6748 80.2077C61.9181 80.3339 61.1614 80.46 60.2786 80.7122ZM75.6644 69.7404C73.7727 72.7671 71.1244 75.4155 68.0976 77.3072L63.1792 65.4526C62.927 64.4436 63.4315 63.4347 64.3143 63.0564 64.6926 62.9303 65.0709 62.8042 65.4493 62.8042L78.0606 64.9481C77.43 66.7137 76.6733 68.3531 75.6644 69.7404Z" fill="#FFFFFF" transform="matrix(1.00424 0 0 1 146.993 2273.2)"/><path d="M611.013 78.8205C612.778 78.9466 614.67 78.6944 616.31 78.0638 617.318 77.5594 617.949 76.4244 617.823 75.2894 617.697 74.0282 616.94 72.8932 615.805 72.5149 613.913 71.3799 611.769 70.3709 609.626 69.7404 607.482 68.9837 605.59 68.1009 603.824 67.2181 602.185 66.4615 600.798 65.4526 599.41 64.1914 598.149 62.9303 597.266 61.5431 596.636 59.9036 595.879 58.0119 595.627 55.9941 595.627 53.9763 595.501 49.8146 597.393 45.779 600.672 43.2567 604.077 40.6083 608.617 39.3472 614.418 39.3472 617.192 39.3472 620.093 39.5994 622.867 40.23 625.011 40.6083 627.155 41.1128 629.299 41.8695L626.903 52.589C625.137 51.9585 623.498 51.5801 621.732 51.0757 619.715 50.5712 617.571 50.4451 615.553 50.4451 611.265 50.4451 609.121 51.5801 609.121 53.9763 609.121 54.4807 609.247 54.9852 609.373 55.4896 609.626 55.9941 610.004 56.3724 610.508 56.7508 611.013 57.1291 611.769 57.5074 612.652 58.0119 613.535 58.5163 614.796 59.0208 616.31 59.5253 618.832 60.408 621.354 61.5431 623.624 62.8042 625.39 63.687 626.903 64.822 628.164 66.3353 629.299 67.4704 630.056 68.8576 630.56 70.4971 631.065 72.2626 631.317 74.0282 631.317 75.7938 631.569 80.0816 629.551 84.2434 625.894 86.6395 622.363 89.0356 617.318 90.2968 610.761 90.2968 607.103 90.4229 603.572 90.0446 600.041 89.1618 598.023 88.6573 596.131 88.0267 594.24 87.3962L596.51 76.2983C598.78 77.181 601.176 77.9377 603.572 78.4422 606.094 78.5683 608.491 78.8205 611.013 78.8205M541.525 64.9481C541.399 61.1647 542.155 57.3813 543.416 53.8502 544.551 50.8235 546.317 48.1751 548.587 45.779 550.731 43.635 553.127 41.9956 555.901 40.9867 558.676 39.8517 561.577 39.3472 564.477 39.3472 571.287 39.3472 576.71 41.4911 580.62 45.6528 584.529 49.8146 586.547 55.9941 586.547 64.0653 586.547 64.822 586.547 65.7048 586.421 66.7137 586.421 67.7226 586.295 68.4793 586.295 69.2359L555.523 69.2359C555.775 71.8843 557.163 74.4066 559.433 75.9199 562.207 77.6855 565.486 78.5683 568.765 78.4422 571.161 78.4422 573.683 78.1899 576.08 77.8116 578.097 77.4333 580.115 76.8027 582.007 75.9199L583.899 87.0178C583.016 87.5223 582.007 87.7745 580.998 88.1529 579.611 88.5312 578.224 88.9095 576.836 89.0356 575.323 89.2879 573.81 89.5401 572.044 89.7923 570.404 89.9184 568.639 90.0446 566.873 90.0446 562.964 90.1707 559.18 89.5401 555.523 88.1529 552.496 87.0178 549.848 85.2523 547.578 82.9822 545.434 80.7122 543.921 77.9377 542.912 75.0371 542.029 71.6321 541.525 68.227 541.525 64.9481M573.431 59.7775C573.431 58.6425 573.179 57.5074 572.801 56.3724 572.548 55.2374 571.918 54.3546 571.287 53.4718 570.531 52.589 569.648 51.8324 568.639 51.3279 567.378 50.6974 566.117 50.4451 564.729 50.4451 563.342 50.4451 562.081 50.6974 560.82 51.3279 559.811 51.8324 558.802 52.4629 558.045 53.3457 557.289 54.2285 556.658 55.2374 556.28 56.3724 555.901 57.5074 555.649 58.6425 555.523 59.7775L573.431 59.7775M504.574 28.5015 518.194 26.3576 518.194 40.4822 534.588 40.4822 534.588 51.8324 518.194 51.8324 518.194 68.7315C518.068 71.1276 518.572 73.5238 519.707 75.5416 520.716 77.181 522.734 78.0638 525.887 78.0638 527.4 78.0638 528.913 77.9377 530.301 77.6855 531.814 77.4333 533.201 77.0549 534.588 76.5505L536.48 87.144C534.715 87.9006 532.823 88.4051 530.931 88.9095 528.535 89.414 526.013 89.6662 523.49 89.6662 520.338 89.7923 517.185 89.2879 514.284 88.1529 512.014 87.2701 509.996 85.7567 508.483 83.9911 506.97 82.0994 505.961 79.8294 505.33 77.4333 504.7 74.6588 504.448 71.7582 504.574 68.9837L504.574 28.5015M449.462 64.9481C449.336 61.1647 450.093 57.3813 451.354 53.8502 452.489 50.8235 454.255 48.1751 456.525 45.779 458.669 43.635 461.065 41.9956 463.839 40.9867 466.614 39.8517 469.514 39.3472 472.415 39.3472 479.225 39.3472 484.648 41.4911 488.557 45.6528 492.467 49.8146 494.485 55.9941 494.485 64.0653 494.485 64.822 494.485 65.7048 494.358 66.7137 494.232 67.7226 494.232 68.4793 494.232 69.2359L463.335 69.2359C463.587 71.8843 464.974 74.4066 467.244 75.9199 470.019 77.6855 473.298 78.5683 476.577 78.4422 478.973 78.4422 481.495 78.1899 483.891 77.8116 485.909 77.4333 487.927 76.8027 489.945 75.9199L491.836 87.0178C490.953 87.5223 489.945 87.7745 488.936 88.1529 487.548 88.5312 486.161 88.9095 484.774 89.0356 483.261 89.2879 481.747 89.5401 479.982 89.7923 478.342 89.9184 476.577 90.0446 474.811 90.0446 470.901 90.1707 467.118 89.5401 463.461 88.1529 460.434 87.0178 457.786 85.2523 455.516 82.9822 453.372 80.7122 451.858 77.9377 450.85 75.0371 449.841 71.6321 449.336 68.227 449.462 64.9481M481.369 59.7775C481.369 58.6425 481.117 57.5074 480.738 56.3724 480.486 55.2374 479.855 54.3546 479.225 53.4718 478.468 52.589 477.585 51.8324 476.577 51.3279 475.315 50.6974 474.054 50.4451 472.667 50.4451 471.28 50.4451 470.019 50.6974 468.758 51.3279 467.749 51.8324 466.866 52.4629 466.109 53.3457 465.353 54.2285 464.722 55.2374 464.344 56.3724 463.965 57.5074 463.713 58.6425 463.587 59.7775L481.369 59.7775M397.756 42.1217C400.657 41.365 403.683 40.7344 406.71 40.23 410.493 39.5994 414.403 39.3472 418.186 39.3472 421.591 39.2211 424.996 39.8517 428.275 40.9867 430.798 41.8695 433.068 43.3828 434.707 45.4006 436.347 47.4184 437.482 49.8146 438.112 52.3368 438.869 55.2374 439.121 58.2641 439.121 61.2908L439.121 88.4051 425.627 88.4051 425.627 63.0564C425.627 58.6425 424.996 55.6157 423.861 53.7241 422.726 51.9585 420.582 50.9496 417.43 50.9496 416.421 50.9496 415.412 50.9496 414.277 51.0757 413.142 51.0757 412.259 51.2018 411.376 51.3279L411.376 88.4051 397.756 88.4051 397.756 42.1217M388.171 52.589C386.91 52.3368 385.523 51.9585 383.884 51.7063 382.118 51.3279 380.352 51.2018 378.587 51.2018 377.578 51.2018 376.569 51.3279 375.434 51.454 374.551 51.5801 373.668 51.7063 372.786 51.9585L372.786 88.6573 359.166 88.6573 359.166 43.0045C361.94 41.9956 364.841 41.2389 367.741 40.6083 371.398 39.7255 375.182 39.3472 378.839 39.4733 379.722 39.4733 380.605 39.5994 381.488 39.5994 382.496 39.5994 383.505 39.7255 384.64 39.9778 385.649 40.1039 386.658 40.23 387.793 40.4822 388.676 40.6083 389.559 40.8606 390.441 41.2389L388.171 52.589M303.55 64.9481C303.424 61.1647 304.18 57.3813 305.441 53.8502 306.576 50.8235 308.342 48.1751 310.612 45.779 312.756 43.635 315.152 41.9956 317.927 40.9867 320.701 39.8517 323.602 39.3472 326.502 39.3472 333.312 39.3472 338.735 41.4911 342.645 45.6528 346.554 49.8146 348.572 55.9941 348.572 63.9392 348.572 64.6959 348.572 65.5787 348.446 66.5876 348.32 67.5965 348.32 68.3531 348.32 69.1098L317.422 69.1098C317.674 71.7582 319.062 74.2804 321.332 75.7938 324.106 77.5594 327.385 78.4422 330.664 78.3161 333.06 78.3161 335.582 78.0638 337.979 77.6855 339.996 77.3072 342.014 76.6766 343.906 75.9199L345.798 87.0178C344.915 87.5223 343.906 87.7745 342.897 88.1529 341.51 88.5312 340.122 88.9095 338.735 89.0356 337.222 89.2879 335.709 89.5401 333.943 89.7923 332.303 89.9184 330.538 90.0446 328.772 90.0446 324.863 90.1707 321.079 89.5401 317.422 88.1529 314.395 87.0178 311.747 85.2523 309.477 82.9822 307.333 80.7122 305.82 77.9377 304.811 75.0371 304.054 71.6321 303.55 68.3531 303.55 64.9481M335.582 59.7775C335.582 58.6425 335.33 57.5074 334.952 56.3724 334.7 55.2374 334.069 54.3546 333.439 53.4718 332.682 52.589 331.799 51.8324 330.79 51.3279 329.529 50.6974 328.268 50.4451 326.881 50.4451 325.493 50.4451 324.232 50.6974 322.971 51.3279 321.962 51.8324 320.953 52.4629 320.197 53.3457 319.44 54.2285 318.809 55.2374 318.431 56.3724 318.053 57.5074 317.801 58.6425 317.674 59.7775L335.582 59.7775M281.48 64.1914C281.48 55.3635 278.201 51.0757 271.769 51.0757 270.382 51.0757 268.995 51.2018 267.608 51.5801 266.473 51.8324 265.338 52.3368 264.329 52.9674L264.329 77.6855C264.959 77.8116 265.842 77.9377 266.851 78.0638 267.86 78.1899 268.995 78.1899 270.256 78.1899 273.535 78.4422 276.688 77.0549 278.706 74.4066 280.597 71.3799 281.606 67.8487 281.48 64.1914M295.352 64.6959C295.352 68.227 294.848 71.7582 293.587 75.1632 292.578 78.1899 290.939 80.8383 288.795 83.1084 286.525 85.3784 283.876 87.144 280.976 88.279 277.571 89.5401 274.039 90.0446 270.382 90.0446 268.743 90.0446 266.977 89.9184 265.211 89.7923 263.446 89.6662 261.68 89.414 259.915 89.2879 258.275 89.0356 256.636 88.7834 254.996 88.4051 253.357 88.1529 251.97 87.7745 250.835 87.2701L250.835 19.7997 264.455 17.6558 264.455 41.6172C265.968 40.9867 267.608 40.4822 269.247 40.1039 271.013 39.7255 272.778 39.5994 274.544 39.5994 277.697 39.5994 280.723 40.1039 283.624 41.4911 286.146 42.6261 288.416 44.3917 290.182 46.5356 292.074 48.9318 293.461 51.5801 294.217 54.4807 294.974 57.6336 295.352 61.1647 295.352 64.6959M237.845 86.8917C234.944 87.6484 231.918 88.279 228.891 88.6573 225.108 89.2879 221.198 89.5401 217.415 89.5401 213.884 89.6662 210.479 89.0356 207.2 87.9006 204.677 86.8917 202.533 85.3784 200.768 83.3606 199.128 81.2167 197.993 78.8205 197.363 76.1721 196.606 73.2715 196.354 70.1187 196.354 67.092L196.354 40.4822 209.974 40.4822 209.974 65.5787C209.974 69.9926 210.605 73.1454 211.74 75.0371 212.875 76.9288 215.019 77.9377 218.171 77.9377 219.18 77.9377 220.189 77.9377 221.324 77.8116 222.459 77.6855 223.342 77.6855 224.225 77.4333L224.225 40.4822 237.845 40.4822 237.845 86.8917M158.394 57.8858C159.781 56.3724 161.042 54.8591 162.556 53.3457 163.943 51.7063 165.33 50.1929 166.717 48.6795 168.105 47.0401 169.366 45.6528 170.501 44.2656 171.636 42.8784 172.771 41.6172 173.654 40.6083L189.796 40.6083C186.517 44.2656 183.364 47.9229 180.338 51.3279 177.185 54.733 173.906 58.2641 170.249 61.7953 172.266 63.687 174.158 65.5787 175.924 67.7226 177.815 69.9926 179.707 72.2626 181.599 74.7849 183.364 77.181 185.13 79.7033 186.643 82.0994 188.157 84.4956 189.418 86.7656 190.427 88.7834L174.789 88.7834C173.78 87.144 172.645 85.5045 171.384 83.6128 170.122 81.7211 168.735 79.8294 167.474 77.8116 166.087 75.9199 164.573 74.0282 162.934 72.2626 161.547 70.6232 160.033 69.1098 158.394 67.8487L158.394 88.9095 144.774 88.9095 144.774 19.7997 158.394 17.6558 158.394 57.8858" transform="matrix(1.00424 0 0 1 146.993 2273.2)"/></g></g></g></g></svg>