<svg width="4400" height="2475" xmlns="http://www.w3.org/2000/svg" xmlns:xlink="http://www.w3.org/1999/xlink" overflow="hidden"><defs><clipPath id="clip0"><rect x="0" y="0" width="4400" height="2475"/></clipPath><clipPath id="clip1"><path d="M763 789 639 851 639 1016 763 1078 887 1016 887 851ZM6.55651e-05 3.68804e-05 4400 3.68804e-05 4400 2475 6.55651e-05 2475Z" fill-rule="evenodd" clip-rule="evenodd"/></clipPath><clipPath id="clip2"><rect x="665" y="861" width="197" height="145"/></clipPath><clipPath id="clip3"><rect x="665" y="861" width="197" height="145"/></clipPath><clipPath id="clip4"><rect x="665" y="861" width="197" height="145"/></clipPath></defs><g clip-path="url(#clip0)"><rect x="0" y="0" width="4400" height="2475" fill="#FFFFFF"/><rect x="1894.5" y="239.5" width="978" height="600" stroke="#000000" stroke-width="4.58333" stroke-miterlimit="8" fill="#FFFFFF"/><text fill="#191A8E" font-family="Cascadia Code,Cascadia Code_MSFontService,sans-serif" font-weight="400" font-size="83" transform="matrix(1 0 0 1 2597.95 519)">State<tspan font-size="83" x="0" y="99">Store</tspan></text><path d="M497.009 179.077 749.459 305.302 749.459 641.393 497.009 767.617 244.559 641.393 244.559 305.302Z" fill="#191A8E" fill-rule="evenodd"/><path d="M478.5 150 726 273.75 726 603.25 478.5 727 231 603.25 231 273.75Z" fill="#73CDF4" fill-rule="evenodd"/><text fill="#191A8E" font-family="Cascadia Code,Cascadia Code_MSFontService,sans-serif" font-weight="400" font-size="64" transform="matrix(1 0 0 1 270.586 422)">Application<tspan font-size="64" x="132.344" y="77">Code</tspan></text><g clip-path="url(#clip1)"><path d="M767.277 803.513 888.796 864.273 888.796 1025.97 767.277 1086.73 645.757 1025.97 645.757 864.273Z" fill="#191A8E" fill-rule="evenodd"/><path d="M887.674 864.967 767.277 804.768 646.88 864.967 646.88 1025.28 767.277 1085.48 887.674 1025.28ZM889.919 863.579 889.919 1026.67 767.277 1087.99 644.634 1026.67 644.634 863.579 767.277 802.258Z" fill="#191A8E" fill-rule="evenodd"/></g><path d="M763 789 887 851 887 1016 763 1078 639 1016 639 851Z" stroke="#AFABAB" stroke-width="2.29167" stroke-miterlimit="8" fill="#FFFFFF" fill-rule="evenodd"/><g clip-path="url(#clip2)"><g clip-path="url(#clip3)"><g clip-path="url(#clip4)"><path d="M47.8889 103.205 33.5467 103.205 33.5467 98.7008C32.1766 100.421 30.792 101.674 29.3927 102.461 26.944 103.831 24.1601 104.516 21.041 104.516 15.9979 104.516 11.5086 102.782 7.57328 99.3131 2.87995 95.1734 0.533333 89.6934 0.533333 82.872 0.533333 75.9339 2.93826 70.3952 7.74816 66.256 11.5669 62.9622 15.9541 61.3147 20.9098 61.3147 23.7957 61.3147 26.5067 61.9269 29.0429 63.1515 30.5004 63.8512 32.0017 65.0027 33.5467 66.6059L33.5467 37.5278 47.8889 37.5278 47.8889 103.205ZM33.984 82.9158C33.984 80.3504 33.0803 78.1712 31.2729 76.3787 29.4656 74.5856 27.2793 73.6896 24.714 73.6896 21.8572 73.6896 19.5106 74.768 17.674 76.9254 16.1874 78.6742 15.444 80.671 15.444 82.9158 15.444 85.1606 16.1874 87.1574 17.674 88.9062 19.4814 91.0635 21.828 92.1419 24.714 92.1419 27.3084 92.1419 29.502 91.2528 31.2948 89.4747 33.0876 87.6966 33.984 85.5099 33.984 82.9158ZM101.68 103.205 87.3376 103.205 87.3376 98.7008C85.9675 100.421 84.583 101.674 83.184 102.461 80.735 103.831 77.9515 104.516 74.832 104.516 69.7888 104.516 65.2998 102.782 61.3643 99.3131 56.671 95.1734 54.3243 89.6934 54.3243 82.872 54.3243 75.9339 56.7296 70.3952 61.5392 66.256 65.3579 62.9622 69.7451 61.3147 74.7008 61.3147 77.5867 61.3147 80.2976 61.9269 82.8342 63.1515 84.2918 63.8512 85.7931 65.0027 87.3376 66.6059L87.3376 62.6267 101.68 62.6267 101.68 103.205ZM87.775 82.9158C87.775 80.3504 86.8715 78.1712 85.064 76.3787 83.2566 74.5856 81.0704 73.6896 78.5051 73.6896 75.6486 73.6896 73.3019 74.768 71.4651 76.9254 69.9787 78.6742 69.2352 80.671 69.2352 82.9158 69.2352 85.1606 69.9787 87.1574 71.4651 88.9062 73.2726 91.0635 75.6192 92.1419 78.5051 92.1419 81.0998 92.1419 83.2934 91.2528 85.0859 89.4747 86.879 87.6966 87.775 85.5099 87.775 82.9158ZM157.089 82.9595C157.089 89.8976 154.684 95.4358 149.874 99.5755 146.056 102.869 141.668 104.516 136.713 104.516 133.827 104.516 131.116 103.905 128.58 102.68 127.122 101.98 125.621 100.829 124.076 99.2256L124.076 123.494 109.733 123.494 109.733 62.6267 124.076 62.6267 124.076 67.1307C125.358 65.4395 126.743 64.1861 128.23 63.3702 130.678 62 133.462 61.3147 136.581 61.3147 141.625 61.3147 146.114 63.0496 150.049 66.5184 154.742 70.6576 157.089 76.1382 157.089 82.9595ZM142.178 82.9158C142.178 80.6128 141.45 78.616 139.992 76.9254 138.156 74.768 135.794 73.6896 132.908 73.6896 130.314 73.6896 128.121 74.5787 126.327 76.3568 124.535 78.135 123.638 80.3211 123.638 82.9158 123.638 85.4811 124.542 87.6598 126.349 89.4528 128.157 91.2454 130.343 92.1419 132.908 92.1419 135.794 92.1419 138.141 91.0635 139.948 88.9062 141.435 87.1574 142.178 85.1606 142.178 82.9158ZM193.958 75.8758C191.947 74.9136 189.906 74.4326 187.836 74.4326 183.114 74.4326 180.053 76.3568 178.654 80.2048 178.129 81.6038 177.867 83.4843 177.867 85.8454L177.867 103.205 163.525 103.205 163.525 62.6267 177.867 62.6267 177.867 69.2731C179.382 66.912 181.015 65.2064 182.764 64.1573 185.125 62.7579 187.924 62.0582 191.16 62.0582 191.917 62.0582 192.85 62.1019 193.958 62.1894L193.958 75.8758Z" fill="#0D2192" fill-rule="evenodd" transform="matrix(1.00136 0 0 1 665 861)"/><path d="M109.62 103.5 124.061 103.5 125.305 137.405 116.841 143.336 108.377 137.405Z" fill="#0D2192" transform="matrix(1.00136 0 0 1 665 861)"/><path d="M130.961 1.21552C131.55 1.21552 132.028 1.69308 132.028 2.28218L132.028 38.7057C132.028 39.2948 131.55 39.7724 130.961 39.7724L78.3088 39.7724C77.7197 39.7724 77.2421 39.2948 77.2421 38.7057L77.2421 2.28218C77.2421 1.69308 77.7197 1.21551 78.3088 1.21551Z" fill="#0D2192" transform="matrix(1.00136 0 0 1 665 861)"/><path d="M77.2421 1.21552 97.5075 1.21552 97.5075 39.7724 77.2421 39.7724Z" fill="#FFFFFF" fill-opacity="0.08" transform="matrix(1.00136 0 0 1 665 861)"/><path d="M146.623 37.2849C147.719 37.2849 148.608 38.1732 148.608 39.269L148.608 44.5548C148.608 45.6506 147.719 46.5389 146.623 46.5389L61.926 46.5389C60.8302 46.5389 59.9419 45.6506 59.9419 44.5548L59.9419 39.269C59.9419 38.1732 60.8302 37.2849 61.926 37.2849Z" fill="#0D2192" transform="matrix(1.00136 0 0 1 665 861)"/><path d="M59.9419 37.2849 87.3752 37.2849 87.3752 48.6745 59.9419 48.6745Z" fill="#FFFFFF" fill-opacity="0.08" transform="matrix(1.00136 0 0 1 665 861)"/></g></g></g><path d="M1968 398 2197 398 2197 633.678 2197 633.68C2197 659.814 2145.74 681 2082.5 681 2019.26 681 1968 659.814 1968 633.68L1968 633.68Z" fill="#191A8E" fill-rule="evenodd"/><path d="M1968 398.5C1968 372.266 2019.26 351 2082.5 351 2145.74 351 2197 372.266 2197 398.5 2197 424.733 2145.74 446 2082.5 446 2019.26 446 1968 424.733 1968 398.5Z" fill="#73CDF4" fill-rule="evenodd"/><path d="M22.9167-3.4375 126.911-3.4375 126.911 137.74 120.036 137.74 120.036 0 123.474 3.4375 22.9167 3.4375ZM27.5 13.75 0 0 27.5-13.75ZM137.224 133.156 123.474 160.656 109.724 133.156Z" transform="matrix(1.83697e-16 1 1 -1.83697e-16 479.5 727.5)"/><text font-family="Cascadia Code,Cascadia Code_MSFontService,sans-serif" font-weight="400" font-size="55" transform="matrix(1 0 0 1 288.317 953)">HTTP/<tspan font-size="55" x="160.417" y="0">gRPC</tspan></text><path d="M766.937 1100.71 766.937 1160.3 763.5 1156.86 1401.24 1156.86 1397.8 1160.3 1397.8 536.063 1871.69 536.063 1871.69 542.938 1401.24 542.938 1404.68 539.5 1404.68 1163.74 760.062 1163.74 760.062 1100.71ZM749.75 1105.3 763.5 1077.8 777.25 1105.3ZM1867.1 525.75 1894.6 539.5 1867.1 553.25Z"/></g></svg>